<svg width="83" height="80" viewBox="0 0 83 80" fill="none" xmlns="http://www.w3.org/2000/svg">
<g id="Frame 9483">
<path id="path266" d="M65.0708 80H1.72988C1.33463 80 0.967318 79.7921 0.752823 79.4432C0.537847 79.0968 0.506053 78.6566 0.664153 78.2783C5.0061 67.9816 5.0061 56.163 0.664153 45.8657C0.506053 45.4854 0.537847 45.0477 0.752823 44.7009C0.967318 44.3525 1.33463 44.1445 1.72988 44.1445H62.0342C62.68 44.1445 63.2006 44.6912 63.2006 45.3708C63.2006 46.0463 62.68 46.597 62.0342 46.597H3.47908C7.1732 56.5276 7.1732 67.617 3.47908 77.5516H65.0708C73.183 77.5516 79.7818 70.608 79.7818 62.072C79.7818 61.3965 80.3024 60.8458 80.9434 60.8458C81.5893 60.8458 82.1099 61.3965 82.1099 62.072C82.1099 71.9575 74.4652 80 65.0708 80Z" fill="#010E87"/>
<path id="path268" d="M62.0348 51.3701H3.31197C2.668 51.3701 2.14648 50.8194 2.14648 50.1439C2.14648 49.4684 2.668 48.9176 3.31197 48.9176H62.0348C62.6807 48.9176 63.2012 49.4684 63.2012 50.1439C63.2012 50.8194 62.6807 51.3701 62.0348 51.3701Z" fill="#010E87"/>
<path id="path270" d="M65.0666 75.2307H3.49559C2.85356 75.2307 2.33008 74.682 2.33008 74.0045C2.33008 73.329 2.85356 72.7782 3.49559 72.7782H65.0666C70.6772 72.7782 75.2418 67.9742 75.2418 62.0707C75.2418 61.3952 75.7672 60.8445 76.4083 60.8445C77.0494 60.8445 77.5747 61.3952 77.5747 62.0707C77.5747 69.3252 71.9642 75.2307 65.0666 75.2307Z" fill="#010E87"/>
<path id="path272" d="M51.2258 67.52H16.1765C15.5306 67.52 15.011 66.9693 15.011 66.2938C15.011 65.6183 15.5306 65.0676 16.1765 65.0676H51.2258C51.8698 65.0676 52.3894 65.6183 52.3894 66.2938C52.3894 66.9693 51.8698 67.52 51.2258 67.52Z" fill="#010E87"/>
<path id="path274" d="M57.4817 59.0811H22.4304C21.7884 59.0811 21.2668 58.5303 21.2668 57.8548C21.2668 57.1793 21.7884 56.6286 22.4304 56.6286H57.4817C58.1276 56.6286 58.6482 57.1793 58.6482 57.8548C58.6482 58.5303 58.1276 59.0811 57.4817 59.0811Z" fill="#010E87"/>
<path id="path276" d="M22.1291 44.1188H60.8586V34.4677C60.8586 29.1088 57.4315 24.4281 52.5198 23.0811C45.3369 21.1119 37.6551 21.1119 30.4679 23.0811C25.5596 24.4281 22.1291 29.1088 22.1291 34.4677V44.1188ZM62.0251 46.5713H20.9636C20.3216 46.5713 19.7981 46.0205 19.7981 45.345V34.4677C19.7981 27.9937 23.9439 22.3362 29.8827 20.7098C37.4498 18.6357 45.5423 18.6357 53.1079 20.7098C59.0414 22.3362 63.1915 27.9937 63.1915 34.4677V45.345C63.1915 46.0205 62.671 46.5713 62.0251 46.5713Z" fill="#010E87"/>
<path id="path278" d="M41.5008 19.1504C45.421 19.1504 49.3281 19.6753 53.1129 20.7134C58.4969 22.1892 62.406 26.9775 63.0905 32.6842L79.2089 25.7015L41.5008 2.64291L3.7912 25.7015L19.9086 32.6842C20.5917 26.9775 24.5027 22.1892 29.8877 20.7134C33.67 19.6753 37.5772 19.1504 41.5008 19.1504ZM62.0301 35.6955C61.8035 35.6955 61.577 35.626 61.3842 35.4876C61.0612 35.2599 60.8636 34.8795 60.8636 34.4713C60.8636 29.1125 57.4365 24.4317 52.5248 23.0847C45.3419 21.1156 37.6601 21.1156 30.4729 23.0847C25.5645 24.4317 22.1341 29.1125 22.1341 34.4713C22.1341 34.8795 21.9398 35.2599 21.6179 35.4876C21.2925 35.7153 20.8838 35.7589 20.5261 35.6042L0.722236 27.0246C0.309635 26.8466 0.0329595 26.4404 0.00307486 25.9749C-0.0292198 25.5093 0.194918 25.0656 0.57908 24.8297L40.9156 0.164597C41.2771 -0.0549889 41.723 -0.0549889 42.0845 0.164597L82.4191 24.8297C82.8047 25.0656 83.0264 25.5093 82.9975 25.9749C82.9637 26.4404 82.689 26.8466 82.2793 27.0246L62.4735 35.6042C62.3337 35.6635 62.1795 35.6955 62.0301 35.6955Z" fill="#010E87"/>
<path id="path280" d="M72.9739 39.3804C72.3328 39.3804 71.8074 38.8296 71.8074 38.1541V29.7272C71.8074 29.0497 72.3328 28.501 72.9739 28.501C73.6198 28.501 74.1403 29.0497 74.1403 29.7272V38.1541C74.1403 38.8296 73.6198 39.3804 72.9739 39.3804Z" fill="#010E87"/>
<path id="path282" d="M69.7768 53.7854H76.1827V42.7533C76.1827 40.8932 74.7463 39.3835 72.9773 39.3835C71.2132 39.3835 69.7768 40.8932 69.7768 42.7533V53.7854ZM77.3443 56.2358H68.6103C67.9692 56.2358 67.4438 55.6871 67.4438 55.0116V42.7533C67.4438 39.5442 69.9262 36.931 72.9773 36.931C76.0284 36.931 78.5108 39.5442 78.5108 42.7533V55.0116C78.5108 55.6871 77.9902 56.2358 77.3443 56.2358Z" fill="#010E87"/>
<path id="path284" d="M77.3443 46.0066H68.6103C67.9692 46.0066 67.4438 45.4579 67.4438 44.7804C67.4438 44.1049 67.9692 43.5562 68.6103 43.5562H77.3443C77.9902 43.5562 78.5108 44.1049 78.5108 44.7804C78.5108 45.4579 77.9902 46.0066 77.3443 46.0066Z" fill="#010E87"/>
<path id="path286" d="M54.8693 38.7043H28.7568C28.1129 38.7043 27.5933 38.1571 27.5933 37.4781C27.5933 36.8026 28.1129 36.2554 28.7568 36.2554H54.8693C55.5152 36.2554 56.0357 36.8026 56.0357 37.4781C56.0357 38.1571 55.5152 38.7043 54.8693 38.7043Z" fill="#010E87"/>
</g>
</svg>
