<svg width="80" height="80" viewBox="0 0 80 80" fill="none" xmlns="http://www.w3.org/2000/svg">
<path d="M39.6334 75.4717C20.2696 75.4717 4.52832 59.7305 4.52832 40.3666C4.52832 21.0027 20.2696 5.26147 39.6334 5.26147C58.9973 5.26147 74.7386 21.0027 74.7386 40.3666C74.7386 59.7305 58.9973 75.4717 39.6334 75.4717ZM39.6334 7.33156C21.434 7.33156 6.5984 22.1671 6.5984 40.3666C6.5984 58.5661 21.434 73.4016 39.6334 73.4016C57.8329 73.4016 72.6685 58.5661 72.6685 40.3666C72.6685 22.1671 57.8329 7.33156 39.6334 7.33156Z" fill="#3D4DB6"/>
<path d="M39.6336 65.5094C25.7899 65.5094 14.4907 54.2534 14.4907 40.3666C14.4907 26.5229 25.7468 15.2237 39.6336 15.2237C53.4772 15.2237 64.7764 26.4798 64.7764 40.3666C64.7764 54.2534 53.4772 65.5094 39.6336 65.5094ZM39.6336 17.3369C26.9112 17.3369 16.6039 27.6873 16.6039 40.3666C16.6039 53.089 26.9543 63.3962 39.6336 63.3962C52.3559 63.3962 62.6632 53.0458 62.6632 40.3666C62.6632 27.6873 52.3128 17.3369 39.6336 17.3369Z" fill="#3D4DB6"/>
<path d="M39.6333 53.8221C32.2155 53.8221 26.1777 47.7844 26.1777 40.3666C26.1777 32.9488 32.2155 26.9111 39.6333 26.9111C47.051 26.9111 53.0888 32.9488 53.0888 40.3666C53.0888 47.7844 47.051 53.8221 39.6333 53.8221ZM39.6333 29.0243C33.3799 29.0243 28.2478 34.1132 28.2478 40.4097C28.2478 46.6631 33.3368 51.7952 39.6333 51.7952C45.8866 51.7952 51.0187 46.7062 51.0187 40.4097C50.9756 34.1132 45.8866 29.0243 39.6333 29.0243Z" fill="#3D4DB6"/>
<path d="M39.6332 29.0243C39.0725 29.0243 38.5981 28.5499 38.5981 27.9892V1.81132C38.5981 1.25067 39.0725 0.776276 39.6332 0.776276C40.1938 0.776276 40.6682 1.25067 40.6682 1.81132V27.9892C40.6682 28.5499 40.1938 29.0243 39.6332 29.0243Z" fill="#3D4DB6"/>
<path d="M78.1885 41.4016H52.0106C51.45 41.4016 50.9756 40.9272 50.9756 40.3666C50.9756 39.8059 51.45 39.3315 52.0106 39.3315H78.1885C78.7492 39.3315 79.2236 39.8059 79.2236 40.3666C79.2667 40.9704 78.7923 41.4016 78.1885 41.4016Z" fill="#3D4DB6"/>
<path d="M39.6332 80C39.0725 80 38.5981 79.5256 38.5981 78.965V52.7871C38.5981 52.2264 39.0725 51.752 39.6332 51.752C40.1938 51.752 40.6682 52.2264 40.6682 52.7871V78.965C40.6682 79.5256 40.1938 80 39.6332 80Z" fill="#3D4DB6"/>
<path d="M27.2129 41.4016H1.03504C0.474394 41.4016 0 40.9704 0 40.3666C0 39.8059 0.474394 39.3315 1.03504 39.3315H27.2129C27.7736 39.3315 28.248 39.8059 28.248 40.3666C28.248 40.9704 27.7736 41.4016 27.2129 41.4016Z" fill="#3D4DB6"/>
<path d="M39.6336 41.4016C39.3749 41.4016 39.1161 41.3154 38.9005 41.0998C38.5123 40.7116 38.5123 40.0216 38.9005 39.6334L69.8223 8.71161C70.2105 8.32347 70.9005 8.32347 71.2886 8.71161C71.6768 9.09975 71.6768 9.78977 71.2886 10.1779L40.3668 41.0998C40.1512 41.3154 39.8924 41.4016 39.6336 41.4016Z" fill="#3D4DB6"/>
<path d="M39.6336 41.4016C39.3749 41.4016 39.073 41.2723 38.9005 41.0997C38.6849 40.8841 38.5555 40.5822 38.5986 40.2803L39.0299 34.5014C39.0299 33.9407 39.5474 33.5095 40.108 33.5526C40.7118 33.5957 41.1431 34.0701 41.0999 34.6739L40.7549 39.2453L45.3264 38.9003C45.887 38.8572 46.4045 39.2884 46.4477 39.8491C46.4908 40.4097 46.0595 40.9272 45.4989 40.9704L39.7199 41.4016C39.6768 41.4016 39.6336 41.4016 39.6336 41.4016Z" fill="#3D4DB6"/>
<path d="M72.4099 13.9299H67.1054C66.5447 13.9299 66.0703 13.4555 66.0703 12.8949V7.5903C66.0703 7.33154 66.1997 7.02965 66.3722 6.85714L72.9275 0.301887C73.1862 0.043127 73.6175 -0.086253 73.9625 0.043127C74.3506 0.172507 74.6094 0.474394 74.6957 0.819407L75.4288 4.48518L79.224 5.30458C79.6121 5.39084 79.914 5.6496 80.0002 6.03774C80.1296 6.38275 80.0002 6.81402 79.7415 7.07278L73.1862 13.628C72.9706 13.8005 72.7118 13.9299 72.4099 13.9299ZM68.1835 11.8598H72.0218L76.8951 6.98652L74.3075 6.42588C73.9194 6.33962 73.5744 6.03774 73.4881 5.60647L73.0137 3.19137L68.1835 8.02156V11.8598Z" fill="#3D4DB6"/>
</svg>
