<svg width="83" height="80" viewBox="0 0 83 80" fill="none" xmlns="http://www.w3.org/2000/svg">
<path d="M71.0166 30.4425C70.4859 30.4425 69.9995 30.0443 69.9553 29.4691C68.4961 14.9558 55.9819 3.5841 41.5222 3.5841C26.5318 3.5841 14.283 14.7345 13.0006 29.4691C12.9564 30.0443 12.47 30.4868 11.8509 30.4425C11.276 30.3983 10.8338 29.8673 10.878 29.2921C12.2489 13.4071 25.4263 1.46021 41.5222 1.46021C57.3527 1.46021 70.4859 13.4071 72.1221 29.2921C72.1663 29.8673 71.7683 30.3983 71.1492 30.4425C71.105 30.4425 71.0608 30.4425 71.0166 30.4425Z" fill="#3D4DB6"/>
<path d="M75.7922 29.4248C75.2616 29.4248 74.7752 29.0266 74.731 28.4513C73.5813 17.2124 66.9041 7.30089 56.9105 2.0354C56.3799 1.76991 56.203 1.1062 56.4683 0.575223C56.7336 0.04425 57.3969 -0.132741 57.9276 0.132746C68.5845 5.75221 75.7038 16.2832 76.8977 28.2301C76.942 28.8053 76.544 29.3363 75.9249 29.3805C75.8807 29.4248 75.8365 29.4248 75.7922 29.4248Z" fill="#3D4DB6"/>
<path d="M7.16348 29.6018C6.45597 29.5575 6.05799 29.0266 6.10221 28.4513C7.29614 16.4602 14.4155 5.97347 25.0724 0.354002C25.603 0.0442679 26.2221 0.265507 26.5316 0.79648C26.7969 1.28321 26.5758 1.94692 26.0894 2.21241C16.0516 7.52214 9.37445 17.3894 8.22475 28.6726C8.18053 29.2036 7.69411 29.6018 7.16348 29.6018Z" fill="#3D4DB6"/>
<path d="M57.4411 30.4425C56.8662 30.4425 56.3798 30 56.3798 29.4248C55.9376 19.2478 53.2845 10.0443 49.2605 4.64603C44.2195 3.2301 38.8689 3.2301 33.8279 4.64603C29.8039 10.0443 27.1065 19.2478 26.7085 29.4248C26.6201 30 26.1779 30.4867 25.5146 30.4425C24.9398 30.3982 24.4976 29.9115 24.4976 29.3363C24.9398 18.5841 27.8582 8.76108 32.2802 3.05311C32.4128 2.87612 32.5897 2.74338 32.8108 2.69913C38.4267 1.06196 44.4848 1.06196 50.1006 2.69913C50.3217 2.74338 50.4986 2.87612 50.6313 3.05311C55.0532 8.71683 57.9717 18.5398 58.4139 29.3363C58.4581 29.9115 57.9717 30.4425 57.3969 30.4425C57.4411 30.4425 57.4411 30.4425 57.4411 30.4425Z" fill="#3D4DB6"/>
<path d="M25.603 30.4425C24.9398 30.3982 24.4976 29.9115 24.4976 29.3363C24.9398 18.5841 27.8582 8.76107 32.2802 3.05311C32.4128 2.87612 32.5897 2.74338 32.8108 2.69913C38.4267 1.06196 44.4848 1.06196 50.1006 2.69913C50.3217 2.74338 50.4986 2.87612 50.6313 3.05311C55.009 8.67258 57.8391 17.9204 58.3697 28.4513C58.4139 29.0266 57.9275 29.5575 57.3526 29.5575C56.7336 29.6018 56.2472 29.1151 56.2472 28.5398C55.7165 18.7611 53.0634 9.86727 49.1278 4.60178C44.0868 3.18585 38.7362 3.18585 33.6952 4.60178C29.6712 10 26.9739 19.2036 26.5759 29.3805C26.6201 30 26.1337 30.4425 25.603 30.4425Z" fill="#3D4DB6"/>
<path d="M41.5222 30.4425C40.9474 30.4425 40.4609 29.9558 40.4609 29.3806V2.52215C40.4609 1.94693 40.9474 1.46021 41.5222 1.46021C42.0971 1.46021 42.5835 1.94693 42.5835 2.52215V29.3806C42.5835 29.9558 42.0971 30.4425 41.5222 30.4425Z" fill="#3D4DB6"/>
<path d="M11.9393 30.4425C11.276 30.3982 10.8338 29.8673 10.878 29.292C11.0549 27.4336 11.4087 25.6637 11.9835 23.5398C12.072 23.3186 12.2046 23.1416 12.3815 23.0089C18.7049 18.0974 29.5829 15.1328 41.5222 15.1328C53.4614 15.1328 64.3394 18.0531 70.6628 23.0089C71.1492 23.3628 71.1934 24.0266 70.8397 24.5133C70.4859 25 69.8226 25.0443 69.3362 24.6903C63.455 20.1328 52.7981 17.3009 41.5222 17.3009C30.3788 17.3009 19.8988 20.0443 13.9734 24.5133C13.4428 26.3274 13.1332 27.8319 13.0006 29.469C12.9564 30.0443 12.5142 30.4425 11.9393 30.4425Z" fill="#3D4DB6"/>
<path d="M41.5222 74.646C41.3011 74.646 41.1242 74.6018 40.9474 74.469L37.6751 72.3451C34.9335 70.5752 31.7055 69.6018 28.4332 69.6018H5.57177C4.99691 69.6018 4.5105 69.1151 4.5105 68.5398V33.4071C4.5105 32.8319 4.99691 32.3452 5.57177 32.3452H28.389C32.1035 32.3452 35.6852 33.4071 38.7806 35.4425L41.478 37.2124L44.1754 35.3982C47.2708 33.4071 50.8525 32.3009 54.567 32.3009H77.3842C77.9591 32.3009 78.4455 32.7876 78.4455 33.3628V68.4956C78.4455 69.0708 77.9591 69.5575 77.3842 69.5575H54.567C51.2947 69.5575 48.1109 70.4867 45.3251 72.3009L42.0529 74.4248C41.9202 74.6018 41.6991 74.646 41.5222 74.646ZM6.63303 67.4779H28.389C32.1035 67.4779 35.6852 68.5398 38.7806 70.5752L41.478 72.3451L44.1754 70.5752C47.2708 68.5841 50.8525 67.4779 54.567 67.4779H76.323V34.469H54.567C51.2947 34.469 48.1109 35.3982 45.3251 37.2124L42.0971 39.3363C41.7433 39.5575 41.3011 39.5575 40.9474 39.3363L37.6309 37.2124C34.8893 35.3982 31.7055 34.469 28.389 34.469H6.63303V67.4779Z" fill="#3D4DB6"/>
<path d="M41.5221 80C41.301 80 41.1241 79.9558 40.9473 79.823L37.277 77.4336C34.1375 75.3982 30.5557 74.3363 26.797 74.3363H1.06127C0.486414 74.3805 0 73.8938 0 73.2744V56.3274C0 55.7522 0.486414 55.2655 1.06127 55.2655C1.63612 55.2655 2.12254 55.7522 2.12254 56.3274V72.2124H26.7528C30.9094 72.2124 34.8892 73.4071 38.3825 75.6637L41.4779 77.6991L44.5733 75.6637C48.0224 73.4071 52.0463 72.2124 56.203 72.2124H80.8332V56.3274C80.8332 55.7522 81.3197 55.2655 81.8945 55.2655C82.4694 55.2655 82.9558 55.7522 82.9558 56.3274V73.2744C82.9558 73.8496 82.4694 74.3363 81.8945 74.3363H56.203C52.4885 74.3363 48.8625 75.3982 45.723 77.4336L42.0527 79.823C41.9201 79.9558 41.699 80 41.5221 80Z" fill="#3D4DB6"/>
<path d="M41.5222 74.646C40.9474 74.646 40.4609 74.1593 40.4609 73.5841V55.0885C40.4609 54.5133 40.9474 54.0266 41.5222 54.0266C42.0971 54.0266 42.5835 54.5133 42.5835 55.0885V73.5841C42.5835 74.1593 42.0971 74.646 41.5222 74.646Z" fill="#3D4DB6"/>
<path d="M41.5222 49.0266C40.9474 49.0266 40.4609 48.5398 40.4609 47.9646V38.4071C40.4609 37.8319 40.9474 37.3452 41.5222 37.3452C42.0971 37.3452 42.5835 37.8319 42.5835 38.4071V47.9646C42.5835 48.5398 42.0971 49.0266 41.5222 49.0266Z" fill="#3D4DB6"/>
<path d="M28.0353 41.5929H11.3203C10.7454 41.5929 10.259 41.1062 10.259 40.531C10.259 39.9558 10.7454 39.469 11.3203 39.469H28.0353C28.6101 39.469 29.0965 39.9558 29.0965 40.531C29.1408 41.1062 28.6543 41.5929 28.0353 41.5929Z" fill="#3D4DB6"/>
<path d="M28.0353 48.1416H11.3203C10.7454 48.1416 10.259 47.6549 10.259 47.0797C10.259 46.5044 10.7454 46.0177 11.3203 46.0177H28.0353C28.6101 46.0177 29.0965 46.5044 29.0965 47.0797C29.0965 47.6549 28.6543 48.1416 28.0353 48.1416Z" fill="#3D4DB6"/>
<path d="M28.0353 54.646H11.3203C10.7454 54.646 10.259 54.1593 10.259 53.5841C10.259 53.0089 10.7454 52.5221 11.3203 52.5221H28.0353C28.6101 52.5221 29.0965 53.0089 29.0965 53.5841C29.1408 54.1593 28.6543 54.646 28.0353 54.646Z" fill="#3D4DB6"/>
<path d="M28.0353 61.1947H11.3203C10.7454 61.1947 10.259 60.708 10.259 60.1328C10.259 59.5575 10.7454 59.0708 11.3203 59.0708H28.0353C28.6101 59.0708 29.0965 59.5575 29.0965 60.1328C29.1408 60.708 28.6543 61.1947 28.0353 61.1947Z" fill="#3D4DB6"/>
<path d="M71.6798 41.5929H54.9648C54.39 41.5929 53.9036 41.1062 53.9036 40.531C53.9036 39.9558 54.39 39.469 54.9648 39.469H71.6798C72.2547 39.469 72.7411 39.9558 72.7411 40.531C72.7411 41.1062 72.2547 41.5929 71.6798 41.5929Z" fill="#3D4DB6"/>
<path d="M71.6798 48.1416H54.9648C54.39 48.1416 53.9036 47.6549 53.9036 47.0797C53.9036 46.5044 54.39 46.0177 54.9648 46.0177H71.6798C72.2547 46.0177 72.7411 46.5044 72.7411 47.0797C72.7411 47.6549 72.2547 48.1416 71.6798 48.1416Z" fill="#3D4DB6"/>
<path d="M71.6798 54.646H54.9648C54.39 54.646 53.9036 54.1593 53.9036 53.5841C53.9036 53.0089 54.39 52.5221 54.9648 52.5221H71.6798C72.2547 52.5221 72.7411 53.0089 72.7411 53.5841C72.7411 54.1593 72.2547 54.646 71.6798 54.646Z" fill="#3D4DB6"/>
<path d="M71.6798 61.1947H54.9648C54.39 61.1947 53.9036 60.708 53.9036 60.1328C53.9036 59.5575 54.39 59.0708 54.9648 59.0708H71.6798C72.2547 59.0708 72.7411 59.5575 72.7411 60.1328C72.7411 60.708 72.2547 61.1947 71.6798 61.1947Z" fill="#3D4DB6"/>
</svg>
