<svg width="67" height="80" viewBox="0 0 67 80" fill="none" xmlns="http://www.w3.org/2000/svg">
<path d="M42.1474 63.593H23.9659C23.4018 63.593 22.9245 63.1169 22.9245 62.5541V60.1298C22.9245 56.5368 21.2755 53.1169 18.4116 50.6926C12.5536 45.7575 9.60294 38.2684 10.5142 30.606C11.7292 20.303 20.1473 11.9913 30.4748 10.8225C37.0271 10.0866 43.319 12.1212 48.2224 16.4502C53.0389 20.7359 55.7727 26.8831 55.7727 33.3333C55.7727 40.0433 52.822 46.3636 47.6583 50.6926C44.8377 53.0736 43.1888 56.4935 43.1888 60.0866V62.5108C43.2322 63.1169 42.7549 63.593 42.1474 63.593ZM25.0073 61.5151H41.106V60.1731C41.106 55.974 43.0153 51.948 46.3131 49.1775C50.9995 45.2381 53.6464 39.5238 53.6464 33.4199C53.6464 27.5757 51.1297 21.9913 46.7904 18.0952C42.4078 14.1125 36.6799 12.2944 30.6917 12.987C21.3189 14.026 13.7252 21.5584 12.597 30.9091C11.7726 37.8355 14.4629 44.6753 19.7568 49.1342C23.098 51.948 25.0073 55.974 25.0073 60.1298V61.5151Z" fill="#3D4DB6"/>
<path d="M43.4058 69.0476H22.7075C20.6247 69.0476 18.9324 67.3593 18.9324 65.2814C18.9324 63.2034 20.6247 61.5151 22.7075 61.5151H43.4058C45.4887 61.5151 47.181 63.2034 47.181 65.2814C47.181 67.3593 45.4887 69.0476 43.4058 69.0476ZM22.7075 63.5931C21.7963 63.5931 21.0152 64.329 21.0152 65.2814C21.0152 66.1905 21.7529 66.9697 22.7075 66.9697H43.4058C44.3171 66.9697 45.0981 66.2338 45.0981 65.2814C45.0981 64.3723 44.3604 63.5931 43.4058 63.5931H22.7075Z" fill="#3D4DB6"/>
<path d="M43.4058 80H22.7075C20.6247 80 18.9324 78.3117 18.9324 76.2338C18.9324 74.1558 20.6247 72.4675 22.7075 72.4675H43.4058C45.4887 72.4675 47.181 74.1558 47.181 76.2338C47.181 78.3117 45.4887 80 43.4058 80ZM22.7075 74.5022C21.7963 74.5022 21.0152 75.2381 21.0152 76.1905C21.0152 77.0996 21.7529 77.8788 22.7075 77.8788H43.4058C44.3171 77.8788 45.0981 77.1429 45.0981 76.1905C45.0981 75.2814 44.3604 74.5022 43.4058 74.5022H22.7075Z" fill="#3D4DB6"/>
<path d="M42.0606 74.5021H24.0527C23.4885 74.5021 23.0112 74.026 23.0112 73.4632V68.0086C23.0112 67.4459 23.4885 66.9697 24.0527 66.9697H42.0606C42.6247 66.9697 43.102 67.4459 43.102 68.0086V73.4632C43.102 74.0692 42.6681 74.5021 42.0606 74.5021ZM25.0941 72.4242H41.0192V69.0476H25.0941V72.4242Z" fill="#3D4DB6"/>
<path d="M55.6425 80H9.55949C8.99539 80 8.51807 79.5238 8.51807 78.961C8.51807 78.3982 8.99539 77.9221 9.55949 77.9221H55.6425C56.2066 77.9221 56.6839 78.3982 56.6839 78.961C56.6839 79.5238 56.2066 80 55.6425 80Z" fill="#3D4DB6"/>
<path d="M36.2461 63.5931C35.5084 63.4632 35.1179 62.9437 35.2047 62.3809L39.6307 36.7965L37.7648 38.0519C37.4177 38.2684 36.9838 38.3117 36.6366 38.0519L33.0784 35.8009L29.5202 38.0519C29.1731 38.2684 28.7392 38.2684 28.392 38.0519L26.4827 36.7965L30.9088 62.3809C30.9956 62.9437 30.605 63.5065 30.0409 63.5931C29.4768 63.6796 28.9127 63.29 28.826 62.7273L24.0094 34.7186C23.9226 34.2857 24.1395 33.8961 24.4867 33.6796C24.8338 33.4632 25.3111 33.4632 25.6583 33.6796L28.9561 35.9307L32.5143 33.6796C32.8615 33.4632 33.2954 33.4632 33.6425 33.6796L37.1573 35.9307L40.4552 33.6796C40.8023 33.4632 41.2362 33.4199 41.6268 33.6796C42.0173 33.8961 42.1909 34.329 42.1041 34.7186L37.2875 62.7273C37.2007 63.2467 36.7668 63.5931 36.2461 63.5931Z" fill="#3D4DB6"/>
<path d="M33.0785 7.01299C32.5144 7.01299 32.0371 6.5368 32.0371 5.97402V1.03896C32.0371 0.47619 32.471 0 33.0785 0C33.6426 0 34.12 0.47619 34.12 1.03896V5.93073C34.12 6.5368 33.6426 7.01299 33.0785 7.01299Z" fill="#3D4DB6"/>
<path d="M44.7076 9.56711C44.5774 9.56711 44.4038 9.52382 44.2737 9.48053C43.753 9.22079 43.536 8.61473 43.753 8.09525L45.8358 3.63637C46.0962 3.11689 46.7037 2.90044 47.2244 3.11689C47.7451 3.37663 47.962 3.98269 47.7451 4.50217L45.6622 8.96105C45.4887 9.35066 45.0981 9.56711 44.7076 9.56711Z" fill="#3D4DB6"/>
<path d="M54.2106 16.8398C53.9068 16.8398 53.6031 16.71 53.3861 16.4502C52.9956 16.0173 53.0824 15.368 53.5163 14.9783L57.2915 11.8182C57.7254 11.4286 58.3763 11.5151 58.7668 11.948C59.1573 12.3809 59.0706 13.0303 58.6366 13.4199L54.8615 16.5801C54.6879 16.7532 54.4275 16.8398 54.2106 16.8398Z" fill="#3D4DB6"/>
<path d="M59.7215 27.4026C59.2442 27.4026 58.8537 27.0996 58.7235 26.6234C58.5933 26.0606 58.8971 25.4979 59.4612 25.3247L64.191 24.0693C64.7551 23.8961 65.3192 24.2424 65.4928 24.8052C65.6229 25.368 65.3192 25.9308 64.7551 26.1039L60.0253 27.3593C59.8951 27.3593 59.8083 27.4026 59.7215 27.4026Z" fill="#3D4DB6"/>
<path d="M65.0587 40.1299C64.8852 40.1299 60.0252 39.2641 60.0252 39.2641C59.4611 39.1775 59.0706 38.6147 59.1573 38.0519C59.2441 37.4892 59.8082 37.0996 60.3723 37.1861L65.1889 38.0519C65.753 38.1385 66.1435 38.7013 66.0568 39.2641C66.0134 39.7835 65.5794 40.1299 65.0587 40.1299Z" fill="#3D4DB6"/>
<path d="M59.6781 53.1169C59.4611 53.1169 59.2442 53.0736 59.0706 52.9437L55.0351 50.1299C54.5578 49.7836 54.4276 49.1342 54.7747 48.658C55.1219 48.1818 55.7728 48.0519 56.2501 48.3983L60.2856 51.2121C60.7629 51.5584 60.8931 52.2078 60.546 52.684C60.329 52.9437 60.0252 53.1169 59.6781 53.1169Z" fill="#3D4DB6"/>
<path d="M21.4057 9.56708C21.0152 9.56708 20.6247 9.35063 20.4511 8.96102L18.3683 4.54544C18.1079 4.02596 18.3683 3.4199 18.889 3.16016C19.4097 2.90042 20.0172 3.16016 20.2775 3.67964L22.3604 8.13851C22.6207 8.65799 22.3604 9.26405 21.8397 9.52379C21.7095 9.52379 21.5359 9.56708 21.4057 9.56708Z" fill="#3D4DB6"/>
<path d="M11.9462 16.8398C11.7292 16.8398 11.4689 16.7532 11.2519 16.5801L7.47675 13.4199C7.04282 13.0303 6.95603 12.3809 7.34657 11.948C7.7371 11.5151 8.38799 11.4286 8.82192 11.8182L12.5971 14.9783C13.031 15.368 13.1178 16.0173 12.7273 16.4502C12.5103 16.71 12.2499 16.8398 11.9462 16.8398Z" fill="#3D4DB6"/>
<path d="M6.43551 27.4026C6.34873 27.4026 6.26194 27.4026 6.17516 27.3593L1.40197 26.1039C0.837868 25.974 0.490727 25.368 0.664297 24.8052C0.794475 24.2424 1.40197 23.8961 1.96608 24.0693L6.69587 25.3247C7.25997 25.4546 7.60712 26.0606 7.43354 26.6234C7.30337 27.0996 6.86944 27.4026 6.43551 27.4026Z" fill="#3D4DB6"/>
<path d="M1.05462 40.1299C0.533908 40.1299 0.099982 39.7835 0.0131968 39.2641C-0.0735884 38.7013 0.273552 38.1385 0.881049 38.0519L5.69763 37.1861C6.26173 37.0996 6.82584 37.4459 6.91262 38.0519C6.99941 38.6147 6.65227 39.1775 6.04477 39.2641L1.22819 40.1299C1.1848 40.1299 1.1414 40.1299 1.05462 40.1299Z" fill="#3D4DB6"/>
<path d="M6.43532 53.1169C6.08818 53.1169 5.78443 52.9437 5.56746 52.684C5.22032 52.2078 5.3505 51.5584 5.82782 51.2121L9.86334 48.3983C10.3407 48.0519 10.9915 48.1818 11.3387 48.658C11.6858 49.1342 11.5556 49.7836 11.0783 50.1299L7.04281 52.9437C6.86924 53.0303 6.65228 53.1169 6.43532 53.1169Z" fill="#3D4DB6"/>
</svg>
