<svg width="35" height="35" viewBox="0 0 35 35" fill="none" xmlns="http://www.w3.org/2000/svg">
<g clip-path="url(#clip0_13076_4316)">
<path d="M17.6167 0.810075C27.0161 0.703811 34.7016 8.21741 34.8078 17.6168C34.9141 27.0162 27.4005 34.7016 18.0011 34.8079C8.60169 34.9142 0.916257 27.4006 0.809993 18.0012C0.703729 8.60177 8.21733 0.916338 17.6167 0.810075ZM17.9785 32.808C26.2779 32.7142 32.9018 25.9389 32.8079 17.6394C32.7141 9.33995 25.9388 2.71612 17.6393 2.80995C9.33987 2.90378 2.71604 9.67909 2.80987 17.9786C2.90369 26.278 9.67901 32.9019 17.9785 32.808Z" fill="#010E87"/>
<path d="M17.5287 11.2179L24.1989 17.7389L17.6779 24.409L16.7152 23.4679L22.295 17.7604L16.5876 12.1806L17.5287 11.2179Z" fill="#010E87"/>
<path d="M23.2578 18.4282L11.6986 18.5589L11.6832 17.199L23.2424 17.0683L23.2578 18.4282Z" fill="#010E87"/>
</g>
<defs>
<clipPath id="clip0_13076_4316">
<rect width="34" height="34" fill="white" transform="translate(35 34.6157) rotate(179.352)"/>
</clipPath>
</defs>
</svg>
