<svg width="17" height="17" viewBox="0 0 24 24" fill="none" xmlns="http://www.w3.org/2000/svg">
    <path fill="#0077B5" d="M22.23 0H1.77C.79 0 0 .77 0 1.72v20.56C0 23.23.79 24 1.77 24h20.46c.98 0 1.77-.77 1.77-1.72V1.72C24 .77 23.21 0 22.23 0zM7.09 20.45H3.56V9.04h3.53v11.41zm-1.77-13a2.06 2.06 0 1 1 0-4.11 2.06 2.06 0 0 1 0 4.11zM20.45 20.45h-3.53v-5.9c0-1.41-.03-3.22-1.96-3.22-1.96 0-2.26 1.53-2.26 3.11v6.01h-3.53V9.04h3.39v1.56h.05c.47-.89 1.6-1.83 3.3-1.83 3.52 0 4.17 2.32 4.17 5.34v6.34h-.03z"/>
</svg>