<svg width="21" height="20" viewBox="0 0 21 20" fill="none" xmlns="http://www.w3.org/2000/svg">
<path d="M14.6595 14.0169L14.6595 14.0168L14.5094 14.1645L14.5044 14.1694L14.5044 14.1694C13.1044 15.5089 11.2293 16.2556 9.27984 16.2526M14.6595 14.0169L16.7851 8.85996C16.7846 4.76832 13.4182 1.46896 9.28062 1.46896C5.14169 1.46896 1.77617 4.7688 1.77617 8.86076C1.77617 12.9514 5.14123 16.2521 9.27984 16.2526M14.6595 14.0169L14.6644 14.0119M14.6595 14.0169L14.6644 14.0119M9.27984 16.2526L9.28062 15.7526V16.2526C9.28036 16.2526 9.2801 16.2526 9.27984 16.2526ZM14.6644 14.0119C16.026 12.6342 16.7879 10.7858 16.7851 8.86076L14.6644 14.0119ZM15.9284 14.0751L15.6409 14.4281L15.9654 14.7474L19.8888 18.6068L19.1859 19.2984L15.2519 15.4267L14.9377 15.1175L14.5915 15.3905C13.0863 16.5778 11.2128 17.2244 9.28132 17.2216H9.28062C4.57793 17.2216 0.774902 13.4682 0.774902 8.86076C0.774902 4.25331 4.57793 0.499878 9.28062 0.499878C13.9833 0.499878 17.7863 4.25331 17.7863 8.86076V8.86149C17.7891 10.7558 17.1342 12.5953 15.9284 14.0751Z" fill="white" stroke="#3D4DB6"/>
</svg>
