<svg width="16" height="16" viewBox="0 0 16 16" fill="none" xmlns="http://www.w3.org/2000/svg">
<g id="Icone">
<path id="Vector" d="M2.0625 6.26953H13.9451" stroke="#667085" stroke-linecap="round" stroke-linejoin="round"/>
<path id="Vector_2" fill-rule="evenodd" clip-rule="evenodd" d="M4.28906 8.87305C4.28906 8.45883 4.62484 8.12305 5.03906 8.12305H5.04523C5.45945 8.12305 5.79523 8.45883 5.79523 8.87305C5.79523 9.28726 5.45945 9.62305 5.04523 9.62305H5.03906C4.62484 9.62305 4.28906 9.28726 4.28906 8.87305ZM8.00362 8.12307C7.58941 8.12307 7.25362 8.45886 7.25362 8.87307C7.25362 9.28728 7.58941 9.62307 8.00362 9.62307H8.0098C8.42401 9.62307 8.7598 9.28728 8.7598 8.87307C8.7598 8.45886 8.42401 8.12307 8.0098 8.12307H8.00362ZM10.9619 8.12307C10.5477 8.12307 10.2119 8.45886 10.2119 8.87307C10.2119 9.28728 10.5477 9.62307 10.9619 9.62307H10.9681C11.3823 9.62307 11.7181 9.28728 11.7181 8.87307C11.7181 8.45886 11.3823 8.12307 10.9681 8.12307H10.9619ZM10.9619 10.714C10.5477 10.714 10.2119 11.0498 10.2119 11.464C10.2119 11.8782 10.5477 12.214 10.9619 12.214H10.9681C11.3823 12.214 11.7181 11.8782 11.7181 11.464C11.7181 11.0498 11.3823 10.714 10.9681 10.714H10.9619ZM7.25362 11.464C7.25362 11.0498 7.58941 10.714 8.00362 10.714H8.0098C8.42401 10.714 8.7598 11.0498 8.7598 11.464C8.7598 11.8782 8.42401 12.214 8.0098 12.214H8.00362C7.58941 12.214 7.25362 11.8782 7.25362 11.464ZM5.03906 10.714C4.62484 10.714 4.28906 11.0498 4.28906 11.464C4.28906 11.8782 4.62484 12.214 5.03906 12.214H5.04523C5.45945 12.214 5.79523 11.8782 5.79523 11.464C5.79523 11.0498 5.45945 10.714 5.04523 10.714H5.03906Z" fill="#667085"/>
<path id="Vector_3" d="M10.6953 1.33203V3.52589" stroke="#667085" stroke-linecap="round" stroke-linejoin="round"/>
<path id="Vector_4" d="M5.30859 1.33398V3.52784" stroke="#667085" stroke-linecap="round" stroke-linejoin="round"/>
<path id="Vector_5" fill-rule="evenodd" clip-rule="evenodd" d="M10.8255 2.38672H5.18064C3.22285 2.38672 2 3.47734 2 5.48207V11.5152C2 13.5514 3.22285 14.6672 5.18064 14.6672H10.8193C12.7833 14.6672 14 13.5703 14 11.5656V5.48207C14.0062 3.47734 12.7895 2.38672 10.8255 2.38672Z" stroke="#667085" stroke-linecap="round" stroke-linejoin="round"/>
</g>
</svg>
