<svg width="34" height="34" viewBox="0 0 34 34" fill="none" xmlns="http://www.w3.org/2000/svg">
<path d="M16.8054 0.00343273C26.2048 -0.102831 33.8902 7.41077 33.9965 16.8102C34.1028 26.2096 26.5892 33.895 17.1898 34.0013C7.79037 34.1075 0.104936 26.5939 -0.00132802 17.1945C-0.107592 7.79513 7.40601 0.109697 16.8054 0.00343273ZM15.8065 17.1945C26.3065 17.0758 24.1059 17.1007 15.8065 17.1945C24.1059 17.1007 8.30648 17.2793 15.8065 17.1945C25.3065 17.1945 7.50701 17.2884 15.8065 17.1945C7.50701 17.2884 6.80648 17.2963 15.8065 17.1945Z" fill="#010B65"/>
<path d="M23.7323 17.2154L17.0622 10.6944L16.121 11.6571L21.1412 16.565L11.2166 16.6772L11.232 18.0372L21.1558 17.925L16.2486 22.9444L17.2113 23.8856L23.7323 17.2154Z" fill="white"/>
</svg>
