<svg width="69" height="72" viewBox="0 0 69 72" fill="none" xmlns="http://www.w3.org/2000/svg">
<path d="M67.4888 32.7506L61.021 31.8965C60.3377 28.9848 59.1964 26.2129 57.6047 23.6428L61.5878 18.4251C61.8363 18.099 61.8052 17.6331 61.518 17.3458L54.9182 10.715C54.6231 10.4199 54.1572 10.3889 53.8311 10.6451L48.6444 14.6438C46.0899 13.0521 43.3258 11.9185 40.4219 11.2352V6.58428H41.2372C43.054 6.58428 44.5293 5.10903 44.5293 3.29214C44.5293 1.47525 43.054 0 41.2372 0H26.9583C25.1414 0 23.6661 1.47525 23.6661 3.29214C23.6661 5.10903 25.1414 6.58428 26.9583 6.58428H28.1229V11.1498C25.0948 11.8175 22.2142 12.99 19.5587 14.6516L14.3721 10.6529C14.0459 10.3966 13.5801 10.4277 13.285 10.7227L6.68523 17.3536C6.39794 17.6487 6.36689 18.1068 6.61535 18.4329L10.5985 23.6428C9.00679 26.2129 7.86542 28.9848 7.18214 31.8965L0.714342 32.7506C0.302825 32.8049 0 33.1543 0 33.5658V42.4251C0 42.8366 0.302825 43.186 0.714342 43.2404L7.18214 44.0945C7.86542 47.0061 9.00679 49.7781 10.5985 52.3481L6.61535 57.5658C6.36689 57.8919 6.39794 58.3578 6.68523 58.6451L13.285 65.276C13.5801 65.571 14.0459 65.6021 14.3721 65.3458L19.5587 61.3471C22.1132 62.9389 24.8696 64.0958 27.7658 64.779L28.6121 71.2857C28.6665 71.6972 29.0158 72 29.4274 72H38.7603C39.1718 72 39.5212 71.6894 39.5755 71.2857L40.4219 64.779C43.318 64.0958 46.0744 62.9466 48.6289 61.3471L53.8156 65.3458C54.1417 65.6021 54.6076 65.571 54.9026 65.276L61.5024 58.6451C61.7897 58.35 61.8208 57.8919 61.5723 57.5658L57.5891 52.3481C59.1809 49.7781 60.3222 47.0061 61.0055 44.0945L67.4733 43.2404C67.8848 43.186 68.1876 42.8366 68.1876 42.4251V33.5658C68.1876 33.1543 67.8848 32.8049 67.4733 32.7506H67.4888ZM25.3277 3.2999C25.3277 2.39146 26.0654 1.6616 26.966 1.6616H41.2449C42.1533 1.6616 42.8832 2.39922 42.8832 3.2999C42.8832 4.20835 42.1456 4.93821 41.2449 4.93821H26.966C26.0576 4.93821 25.3277 4.20058 25.3277 3.2999ZM38.7758 6.59204V23.34C38.7758 23.6817 38.9932 23.9922 39.3116 24.1087C45.1582 26.2905 48.9939 31.7412 49.087 37.9994C49.087 38.4652 49.0482 38.9233 48.9939 39.3737C46.548 37.8441 43.3413 38.1779 41.2449 40.3054C39.4202 42.1611 36.4853 42.1533 34.6684 40.3054C33.4804 39.0941 31.8965 38.4264 30.2038 38.4264C28.5189 38.4264 26.935 39.0941 25.7392 40.3054C24.0388 42.0369 21.2591 42.2077 19.3568 40.4607C19.2093 39.6609 19.1161 38.8457 19.1006 38.0071C19.1938 31.6868 23.2546 26.0576 29.21 23.9845C29.5438 23.868 29.7613 23.5574 29.7613 23.208V6.58428H38.7603L38.7758 6.59204ZM48.6833 41.2138C47.1226 47.8602 41.1517 52.8528 34.1016 52.8528C27.6416 52.8528 22.0899 48.66 20.0013 42.8521C22.2841 43.8382 25.0404 43.4034 26.9272 41.4856C28.7441 39.6377 31.6791 39.6377 33.5037 41.4856C35.9728 43.9935 39.9638 43.9935 42.4251 41.4856C44.0789 39.8085 46.7577 39.5755 48.6833 41.2216V41.2138ZM66.5493 41.7108L60.2213 42.5416C59.8719 42.5882 59.5924 42.8444 59.5225 43.186C58.8625 46.2996 57.6435 49.2423 55.8965 51.9521C55.7101 52.2472 55.7257 52.6276 55.9353 52.8994L59.8331 58.0006L54.2504 63.6066L49.1802 59.6933C48.9007 59.4759 48.5202 59.4681 48.2252 59.6545C45.5387 61.4093 42.6037 62.636 39.5057 63.296C39.164 63.3659 38.9078 63.6454 38.8612 63.9948L38.0304 70.3539H30.1417L29.3109 63.9948C29.2643 63.6454 29.0081 63.3659 28.6665 63.296C25.5762 62.636 22.6412 61.4093 19.9469 59.6545C19.6519 59.4604 19.2714 59.4759 18.9919 59.6933L13.9217 63.6066L8.33906 58.0006L12.2368 52.8994C12.4465 52.6199 12.462 52.2394 12.2756 51.9521C10.5286 49.2501 9.30962 46.2996 8.64964 43.186C8.57976 42.8444 8.30024 42.5882 7.95084 42.5416L1.62277 41.7108V34.2957L7.95084 33.4649C8.30024 33.4183 8.57976 33.1621 8.64964 32.8204C9.30962 29.7069 10.5286 26.7564 12.2756 24.0543C12.462 23.7593 12.4465 23.3788 12.2368 23.1071L8.33906 18.0058L13.9217 12.3999L18.9919 16.3132C19.2714 16.5306 19.6519 16.5383 19.9469 16.352C22.4704 14.7059 25.219 13.5412 28.1074 12.858V22.649C21.8027 25.0948 17.5477 31.1899 17.4468 38.0226C17.5788 47.1071 25.0404 54.4989 34.086 54.4989C43.1317 54.4989 50.5933 47.1071 50.7253 38.0226V37.9994C50.6244 31.2443 46.5946 25.3277 40.4063 22.781V12.9434C43.1705 13.6422 45.7949 14.768 48.2174 16.3442C48.5125 16.5383 48.8929 16.5228 49.1724 16.3054L54.2426 12.3921L59.8175 17.9981L55.9198 23.0993C55.7101 23.3788 55.6946 23.7515 55.8809 24.0466C57.6279 26.7486 58.847 29.6991 59.507 32.8127C59.5768 33.1543 59.8564 33.4105 60.2058 33.4571L66.5338 34.2879V41.703L66.5493 41.7108Z" fill="#8F00FF"/>
<path d="M40.3442 36.8735C42.1145 36.8735 43.5509 35.437 43.5509 33.6667C43.5509 31.8964 42.1145 30.46 40.3442 30.46C38.5739 30.46 37.1375 31.8964 37.1375 33.6667C37.1375 35.437 38.5739 36.8735 40.3442 36.8735ZM40.3442 32.1061C41.206 32.1061 41.9048 32.8049 41.9048 33.6667C41.9048 34.5286 41.206 35.2274 40.3442 35.2274C39.4823 35.2274 38.7835 34.5286 38.7835 33.6667C38.7835 32.8049 39.4823 32.1061 40.3442 32.1061Z" fill="#8F00FF"/>
<path d="M27.0127 30.2504C27.0127 32.0207 28.4491 33.4572 30.2194 33.4572C31.9897 33.4572 33.4262 32.0207 33.4262 30.2504C33.4262 28.4801 31.9897 27.0437 30.2194 27.0437C28.4491 27.0437 27.0127 28.4801 27.0127 30.2504ZM30.2194 28.6898C31.0813 28.6898 31.7801 29.3886 31.7801 30.2504C31.7801 31.1123 31.0813 31.8111 30.2194 31.8111C29.3576 31.8111 28.6588 31.1123 28.6588 30.2504C28.6588 29.3886 29.3576 28.6898 30.2194 28.6898Z" fill="#8F00FF"/>
</svg>
