<svg width="72" height="72" viewBox="0 0 72 72" fill="none" xmlns="http://www.w3.org/2000/svg">
<path d="M16.2797 0.264038H0.823308C0.365052 0.264038 0 0.636855 0 1.08734V70.9131C0 71.3714 0.372819 71.7364 0.823308 71.7364H16.2797C16.738 71.7364 17.103 71.3636 17.103 70.9131V1.08734C17.103 0.629088 16.7302 0.264038 16.2797 0.264038ZM15.4564 70.0898H1.65438V55.9538H6.78063C7.23889 55.9538 7.60394 55.581 7.60394 55.1305C7.60394 54.68 7.23112 54.3072 6.78063 54.3072H1.65438V46.711H3.86799C4.32625 46.711 4.6913 46.3382 4.6913 45.8877C4.6913 45.4372 4.31848 45.0644 3.86799 45.0644H1.65438V37.4682H6.78063C7.23889 37.4682 7.60394 37.0954 7.60394 36.6449C7.60394 36.1944 7.23112 35.8216 6.78063 35.8216H1.65438V28.2254H4.96315C5.4214 28.2254 5.78645 27.8526 5.78645 27.4021C5.78645 26.9516 5.41363 26.5788 4.96315 26.5788H1.65438V18.9827H6.78063C7.23889 18.9827 7.60394 18.6098 7.60394 18.1593C7.60394 17.7088 7.23112 17.336 6.78063 17.336H1.65438V9.73985H3.86799C4.32625 9.73985 4.6913 9.36703 4.6913 8.91654C4.6913 8.46605 4.31848 8.09324 3.86799 8.09324H1.65438V1.94947H15.4564V70.1209V70.0898Z" fill="#83EA00"/>
<path d="M27.6196 32.241C27.8138 32.6526 28.3031 32.8313 28.7148 32.6449C29.1264 32.4507 29.3051 31.9614 29.1187 31.5497C28.9711 31.2313 28.8313 30.9051 28.707 30.5789C28.5439 30.1517 28.0623 29.9497 27.6352 30.1128C27.2157 30.2837 27.006 30.7575 27.1691 31.1847C27.3089 31.542 27.4565 31.8915 27.6196 32.241Z" fill="#83EA00"/>
<path d="M58.4547 10.1282C58.7965 10.4234 59.3169 10.3845 59.6198 10.0428C59.9149 9.69328 59.8761 9.18065 59.5343 8.87774C58.9751 8.39618 58.377 7.93792 57.7634 7.5185C57.3829 7.26219 56.8702 7.35537 56.6139 7.73595C56.3576 8.10877 56.4508 8.62143 56.8314 8.88551C57.3984 9.27386 57.9421 9.69327 58.4625 10.136L58.4547 10.1282Z" fill="#83EA00"/>
<path d="M49.2511 5.84079C49.9268 5.94953 50.6025 6.09711 51.255 6.28352C51.6899 6.40779 52.1482 6.15148 52.2725 5.70876C52.3967 5.27381 52.1404 4.81555 51.6977 4.69128C50.9831 4.48934 50.253 4.334 49.5152 4.20973C49.0569 4.13206 48.6375 4.44274 48.5676 4.89323C48.4899 5.34372 48.8006 5.76312 49.2511 5.84079Z" fill="#83EA00"/>
<path d="M53.2039 6.94373C53.8331 7.20004 54.4622 7.48742 55.068 7.81364C55.4641 8.03112 55.969 7.87577 56.1865 7.47189C56.3962 7.068 56.2486 6.57091 55.8447 6.35343C55.1845 6.00391 54.5088 5.68544 53.8175 5.40582C53.3903 5.23495 52.9165 5.44468 52.7457 5.8641C52.5748 6.28352 52.7845 6.76508 53.2039 6.93596V6.94373Z" fill="#83EA00"/>
<path d="M64.8003 22.6021C64.8547 23.2856 64.8624 23.9769 64.8391 24.6526C64.8236 25.1109 65.1731 25.4915 65.6314 25.507C66.0819 25.5303 66.4702 25.173 66.4857 24.7147C66.5168 24.0623 66.5013 23.2779 66.4469 22.4779C66.4158 22.0274 66.0197 21.6934 65.5615 21.7167C65.111 21.7477 64.7692 22.1439 64.8003 22.6021Z" fill="#83EA00"/>
<path d="M65.8103 29.1342C66.0045 28.4118 66.1676 27.674 66.2763 26.9439C66.3462 26.4934 66.0355 26.074 65.585 26.0041C65.1345 25.9419 64.7151 26.2449 64.6452 26.6954C64.5443 27.3633 64.3967 28.039 64.218 28.6992C64.1015 29.1419 64.3578 29.5925 64.7928 29.709C65.22 29.8255 65.686 29.5769 65.8025 29.1342H65.8103Z" fill="#83EA00"/>
<path d="M41.1035 6.26799C41.7637 6.08935 42.4394 5.94178 43.1074 5.83304C43.5579 5.76314 43.8608 5.33597 43.7909 4.88548C43.721 4.43499 43.3016 4.13208 42.8433 4.20198C42.1132 4.31849 41.3754 4.48158 40.6608 4.67576C40.2181 4.80003 39.9618 5.25052 40.086 5.69324C40.2103 6.14373 40.6686 6.39227 41.1035 6.26799Z" fill="#83EA00"/>
<path d="M64.0391 18.5866C64.241 19.239 64.4119 19.907 64.5362 20.5749C64.6216 21.0176 65.0488 21.3128 65.4993 21.2351C65.9498 21.1497 66.2449 20.7225 66.1595 20.272C66.0197 19.5419 65.841 18.8118 65.6158 18.0972C65.4837 17.6623 65.0177 17.4215 64.5828 17.5535C64.1478 17.6856 63.907 18.1516 64.0391 18.5866Z" fill="#83EA00"/>
<path d="M62.3851 14.835C62.7268 15.4176 63.0375 16.0389 63.3171 16.6603C63.5035 17.0797 63.9929 17.2661 64.4045 17.0797C64.8239 16.8933 65.0104 16.4118 64.8239 15.9923C64.521 15.3088 64.1793 14.6409 63.8065 14.004C63.5734 13.6079 63.0686 13.4758 62.6802 13.7088C62.2841 13.9418 62.1521 14.4467 62.3851 14.835Z" fill="#83EA00"/>
<path d="M59.9381 11.5496C60.4042 12.0467 60.8469 12.5748 61.2585 13.1263C61.5304 13.4913 62.0508 13.569 62.4158 13.2972C62.7809 13.0253 62.8586 12.5049 62.5789 12.1399C62.1362 11.5418 61.6547 10.9671 61.1498 10.4234C60.8391 10.0894 60.3187 10.0739 59.9847 10.3845C59.6508 10.6952 59.6352 11.2156 59.9459 11.5496H59.9381Z" fill="#83EA00"/>
<path d="M28.0623 28.6371C27.8836 27.9769 27.7438 27.3012 27.6429 26.6332C27.573 26.1827 27.1458 25.8643 26.703 25.942C26.2526 26.0119 25.9419 26.4313 26.0118 26.8818C26.1205 27.6197 26.2759 28.3575 26.47 29.0721C26.5865 29.5148 27.0448 29.7711 27.4797 29.6546C27.9225 29.5381 28.1788 29.0876 28.0623 28.6449V28.6371Z" fill="#83EA00"/>
<path d="M27.9229 17.0176C28.3345 17.204 28.8239 17.0176 29.0103 16.5982C29.2899 15.9768 29.6006 15.3632 29.9501 14.7729C30.1831 14.3845 30.051 13.8719 29.6627 13.6467C29.2666 13.4136 28.7617 13.5457 28.5365 13.9341C28.1559 14.571 27.8141 15.2467 27.5112 15.9224C27.3248 16.3419 27.5112 16.8234 27.9306 17.0098L27.9229 17.0176Z" fill="#83EA00"/>
<path d="M26.812 21.1574C27.2547 21.2429 27.6897 20.9555 27.7751 20.505C27.9071 19.837 28.078 19.169 28.28 18.5166C28.4198 18.0817 28.179 17.6156 27.744 17.4836C27.3091 17.3438 26.843 17.5845 26.711 18.0195C26.4858 18.7341 26.2994 19.4642 26.1595 20.1865C26.0741 20.637 26.3615 21.0642 26.812 21.1496V21.1574Z" fill="#83EA00"/>
<path d="M26.6329 25.4371C27.0989 25.4371 27.4717 25.0487 27.4562 24.5827C27.4329 23.9924 27.4484 23.2545 27.5028 22.5322C27.5416 22.0817 27.1999 21.6856 26.7416 21.6468C26.2678 21.6001 25.8872 21.9497 25.8562 22.4079C25.794 23.2001 25.7785 23.9691 25.8018 24.6448C25.8173 25.0875 26.1824 25.4371 26.6251 25.4371H26.6329Z" fill="#83EA00"/>
<path d="M37.2897 7.7748C37.8955 7.45635 38.5169 7.16898 39.1538 6.91267C39.5732 6.7418 39.7829 6.268 39.6198 5.84082C39.449 5.41363 38.9752 5.2117 38.548 5.37481C37.8567 5.64666 37.1732 5.96508 36.5208 6.31459C36.1169 6.5243 35.9693 7.02916 36.179 7.43305C36.3965 7.83694 36.8936 7.98451 37.2975 7.7748H37.2897Z" fill="#83EA00"/>
<path d="M31.0916 13.0719C31.5033 12.5282 31.946 11.9923 32.412 11.503C32.7227 11.169 32.7072 10.6486 32.381 10.3379C32.047 10.0273 31.5266 10.0428 31.2159 10.369C30.7111 10.9049 30.2217 11.4797 29.779 12.0778C29.5072 12.4428 29.5771 12.9632 29.9421 13.235C30.3072 13.5069 30.8198 13.437 31.0994 13.0719H31.0916Z" fill="#83EA00"/>
<path d="M33.8954 10.0816C34.4158 9.6389 34.9673 9.21945 35.5265 8.83886C35.8993 8.58255 36.0003 8.06994 35.744 7.68935C35.4877 7.30877 34.975 7.21559 34.5944 7.4719C33.9808 7.89132 33.3828 8.3418 32.8158 8.82336C32.4663 9.11851 32.4274 9.6389 32.7226 9.98842C33.0177 10.3379 33.5381 10.3768 33.8876 10.0816H33.8954Z" fill="#83EA00"/>
<path d="M64.6216 30.2294C64.2021 30.0585 63.7206 30.2604 63.5497 30.6876C63.4177 31.0138 63.2779 31.3401 63.1303 31.6507C62.9361 32.0624 63.1147 32.5517 63.5264 32.7459C63.9303 32.94 64.4274 32.7614 64.6216 32.3497C64.7847 32.008 64.9322 31.6585 65.0798 31.3012C65.2507 30.8818 65.0487 30.4002 64.6216 30.2294Z" fill="#83EA00"/>
<path d="M71.1925 38.4702H68.6527V35.3168C68.6527 34.8663 68.2799 34.4934 67.8294 34.4934C67.3789 34.4934 67.0061 34.8663 67.0061 35.3168V38.4702H60.4896L54.5322 21.7244C55.6429 20.1166 56.2953 18.1749 56.2953 16.0855C56.2953 10.8272 52.1943 6.50876 46.9827 6.08934V5.63111C47.0603 5.63111 47.138 5.62334 47.2234 5.63111H47.27C47.6972 5.63111 48.0623 5.28935 48.0933 4.84663C48.1166 4.38838 47.7671 4.00003 47.3089 3.97673C47.2001 3.96896 47.0914 3.97673 46.9827 3.97673V0.823305C46.9827 0.365049 46.6098 0 46.1593 0C45.7089 0 45.336 0.365049 45.336 0.823305V3.97673C45.2506 3.97673 45.1729 3.96896 45.0797 3.97673C44.6215 4.00003 44.2797 4.38059 44.2953 4.83108C44.3186 5.28934 44.7147 5.6311 45.1652 5.61556C45.2195 5.61556 45.2739 5.62333 45.3283 5.61556V6.08934C40.1166 6.50876 36.0156 10.8272 36.0156 16.0855C36.0156 18.1826 36.668 20.1322 37.7865 21.74L23.7048 61.2587C23.6427 61.4451 23.6427 61.6315 23.7048 61.8179C26.1359 68.6607 26.0582 69.3286 26.9592 69.3286C27.3009 69.3286 27.6116 69.1189 27.7281 68.7927L35.9068 46.6256C36.0855 46.144 36.567 45.81 37.103 45.81H37.6933C38.035 45.81 38.3535 45.5926 38.4622 45.2741L40.2952 40.1246H51.9924L53.8254 45.2741C53.9342 45.5926 54.2448 45.81 54.5944 45.81H55.1847C55.7206 45.81 56.1944 46.1362 56.3808 46.61L64.575 68.785C64.8391 69.5073 65.8644 69.5073 66.1284 68.7772L68.5906 61.8024C68.6527 61.6237 68.6527 61.4374 68.5906 61.2509L61.0565 40.1168H66.9906V43.1304C66.9906 43.5887 67.3556 43.9537 67.8139 43.9537C68.2721 43.9537 68.6372 43.5887 68.6372 43.1304V40.1168H71.177C71.6353 40.1168 72.0003 39.744 72.0003 39.2935C72.0003 38.843 71.6353 38.4702 71.177 38.4702H71.1925ZM37.6544 16.0467C37.6544 11.3942 41.4758 7.6272 46.2059 7.6272C50.9361 7.6272 54.7575 11.402 54.7575 16.0467C54.7575 20.6914 50.9361 24.4584 46.2059 24.4584C41.4758 24.4584 37.6544 20.6836 37.6544 16.0467ZM37.103 44.1557H37.0952C35.8758 44.1557 34.7729 44.9168 34.3457 46.0353L26.9592 66.082L25.3437 61.5305L39.0137 23.2079C40.1865 24.3652 41.8719 25.3516 43.6506 25.7943L37.1107 44.1557H37.103ZM40.8855 38.4702L45.305 26.0662C45.5768 26.0895 45.8564 26.1128 46.1438 26.1128C46.4312 26.1128 46.703 26.0895 46.9827 26.0662L51.4021 38.4702H40.8933H40.8855ZM48.6293 25.7943C50.4235 25.3516 52.14 24.3342 53.2895 23.2002L58.7342 38.4702H53.1497L48.6293 25.7943ZM66.9517 61.5305L65.3362 66.082L57.9342 46.0353C57.5148 44.9168 56.4196 44.1557 55.1924 44.1557H55.1847L53.7478 40.1168H59.3245L66.9517 61.5228V61.5305Z" fill="#83EA00"/>
<path d="M51.115 50.5169L49.5228 42.9595C49.3907 42.3226 48.5985 42.0818 48.1402 42.5401L42.6955 47.8916C42.6256 47.9615 42.5247 48.1091 42.4858 48.2256L36.6994 66.183C35.9382 68.5364 37.2586 71.0452 39.6353 71.7908C42.0198 72.5365 44.5519 71.2238 45.3053 68.886C45.6703 67.752 46.1441 66.2762 51.0917 50.9285C51.1306 50.8042 51.1306 50.6101 51.115 50.5091V50.5169ZM44.8082 65.0801L39.3479 63.3713L43.8062 49.5149L49.2665 51.2236L44.8082 65.0801ZM48.2179 44.777L49.2043 49.4838L44.8237 48.1091L48.2101 44.777H48.2179ZM43.7363 68.3966C43.2548 69.8801 41.647 70.7034 40.1324 70.2296C38.6256 69.7559 37.7945 68.1792 38.2683 66.6956L38.8353 64.9403L44.2955 66.649L43.7363 68.3966Z" fill="#83EA00"/>
<path d="M46.1519 19.9535C48.3111 19.9535 50.0665 18.2137 50.0665 16.07C50.0665 13.9263 48.3111 12.1865 46.1519 12.1865C43.9927 12.1865 42.2373 13.9263 42.2373 16.07C42.2373 18.2137 43.9927 19.9535 46.1519 19.9535ZM46.1519 13.8408C47.4024 13.8408 48.4199 14.8428 48.4199 16.07C48.4199 17.2972 47.4024 18.2992 46.1519 18.2992C44.9014 18.2992 43.8839 17.2972 43.8839 16.07C43.8839 14.8428 44.9014 13.8408 46.1519 13.8408Z" fill="#83EA00"/>
</svg>
