<svg width="72" height="72" viewBox="0 0 72 72" fill="none" xmlns="http://www.w3.org/2000/svg">
<path d="M16.2797 0.264038H0.823308C0.365052 0.264038 0 0.636855 0 1.08734V70.9131C0 71.3714 0.372819 71.7364 0.823308 71.7364H16.2797C16.738 71.7364 17.103 71.3636 17.103 70.9131V1.08734C17.103 0.629088 16.7302 0.264038 16.2797 0.264038ZM15.4564 70.0898H1.65438V55.9538H6.78063C7.23889 55.9538 7.60394 55.581 7.60394 55.1305C7.60394 54.68 7.23112 54.3072 6.78063 54.3072H1.65438V46.711H3.86799C4.32625 46.711 4.6913 46.3382 4.6913 45.8877C4.6913 45.4372 4.31848 45.0644 3.86799 45.0644H1.65438V37.4682H6.78063C7.23889 37.4682 7.60394 37.0954 7.60394 36.6449C7.60394 36.1944 7.23112 35.8216 6.78063 35.8216H1.65438V28.2254H4.96315C5.4214 28.2254 5.78645 27.8526 5.78645 27.4021C5.78645 26.9516 5.41363 26.5788 4.96315 26.5788H1.65438V18.9827H6.78063C7.23889 18.9827 7.60394 18.6098 7.60394 18.1593C7.60394 17.7088 7.23112 17.336 6.78063 17.336H1.65438V9.73985H3.86799C4.32625 9.73985 4.6913 9.36703 4.6913 8.91654C4.6913 8.46605 4.31848 8.09324 3.86799 8.09324H1.65438V1.94947H15.4564V70.1209V70.0898Z" fill="#0085FF"/>
<path d="M27.6196 32.241C27.8138 32.6527 28.3031 32.8313 28.7148 32.6449C29.1264 32.4507 29.3051 31.9614 29.1187 31.5498C28.9711 31.2313 28.8313 30.9051 28.707 30.5789C28.5439 30.1517 28.0623 29.9497 27.6352 30.1128C27.2157 30.2837 27.006 30.7575 27.1691 31.1847C27.3089 31.542 27.4565 31.8915 27.6196 32.241Z" fill="#0085FF"/>
<path d="M58.4547 10.1282C58.7965 10.4233 59.3169 10.3845 59.6198 10.0428C59.9149 9.69324 59.8761 9.18062 59.5343 8.8777C58.9751 8.39615 58.377 7.93789 57.7634 7.51847C57.3829 7.26216 56.8702 7.35534 56.6139 7.73592C56.3576 8.10874 56.4508 8.6214 56.8314 8.88548C57.3984 9.27383 57.9421 9.69324 58.4625 10.136L58.4547 10.1282Z" fill="#0085FF"/>
<path d="M49.2508 5.84079C49.9266 5.94953 50.6023 6.09711 51.2547 6.28352C51.6897 6.40779 52.1479 6.15148 52.2722 5.70876C52.3965 5.27381 52.1402 4.81555 51.6975 4.69128C50.9829 4.48934 50.2528 4.334 49.5149 4.20973C49.0567 4.13206 48.6372 4.44274 48.5673 4.89323C48.4897 5.34372 48.8003 5.76312 49.2508 5.84079Z" fill="#0085FF"/>
<path d="M53.2044 6.94373C53.8335 7.20004 54.4627 7.48742 55.0685 7.81364C55.4646 8.03112 55.9695 7.87577 56.187 7.47189C56.3967 7.068 56.2491 6.57091 55.8452 6.35343C55.185 6.00391 54.5093 5.68544 53.818 5.40582C53.3908 5.23495 52.917 5.44468 52.7462 5.8641C52.5753 6.28352 52.785 6.76508 53.2044 6.93596V6.94373Z" fill="#0085FF"/>
<path d="M64.8005 22.6021C64.8549 23.2856 64.8627 23.9769 64.8394 24.6526C64.8238 25.1109 65.1734 25.4915 65.6316 25.507C66.0821 25.5303 66.4705 25.173 66.486 24.7147C66.5171 24.0623 66.5015 23.2779 66.4472 22.4779C66.4161 22.0274 66.02 21.6934 65.5617 21.7167C65.1112 21.7477 64.7695 22.1439 64.8005 22.6021Z" fill="#0085FF"/>
<path d="M65.8103 29.1342C66.0045 28.4119 66.1676 27.674 66.2763 26.9439C66.3462 26.4934 66.0355 26.074 65.585 26.0041C65.1345 25.942 64.7151 26.2449 64.6452 26.6954C64.5443 27.3633 64.3967 28.039 64.218 28.6992C64.1015 29.142 64.3578 29.5925 64.7928 29.709C65.22 29.8255 65.686 29.5769 65.8025 29.1342H65.8103Z" fill="#0085FF"/>
<path d="M41.1033 6.26799C41.7635 6.08935 42.4392 5.94178 43.1072 5.83304C43.5577 5.76314 43.8606 5.33597 43.7907 4.88548C43.7208 4.43499 43.3013 4.13208 42.8431 4.20198C42.113 4.31849 41.3751 4.48158 40.6605 4.67576C40.2178 4.80003 39.9615 5.25052 40.0858 5.69324C40.2101 6.14373 40.6683 6.39227 41.1033 6.26799Z" fill="#0085FF"/>
<path d="M64.0393 18.5866C64.2413 19.239 64.4121 19.907 64.5364 20.5749C64.6218 21.0176 65.049 21.3128 65.4995 21.2351C65.95 21.1497 66.2452 20.7225 66.1597 20.272C66.0199 19.5419 65.8413 18.8118 65.616 18.0972C65.484 17.6623 65.018 17.4215 64.583 17.5535C64.148 17.6856 63.9073 18.1516 64.0393 18.5866Z" fill="#0085FF"/>
<path d="M62.3848 14.835C62.7266 15.4176 63.0373 16.0389 63.3169 16.6603C63.5033 17.0797 63.9926 17.2661 64.4043 17.0797C64.8237 16.8933 65.0101 16.4118 64.8237 15.9923C64.5208 15.3088 64.179 14.6409 63.8062 14.004C63.5732 13.6079 63.0683 13.4758 62.68 13.7088C62.2839 13.9418 62.1518 14.4467 62.3848 14.835Z" fill="#0085FF"/>
<path d="M59.9384 11.5496C60.4044 12.0467 60.8471 12.5749 61.2588 13.1263C61.5306 13.4914 62.051 13.5691 62.4161 13.2972C62.7811 13.0254 62.8588 12.5049 62.5792 12.1399C62.1365 11.5418 61.6549 10.9671 61.15 10.4234C60.8394 10.0894 60.319 10.0739 59.985 10.3846C59.651 10.6953 59.6355 11.2156 59.9462 11.5496H59.9384Z" fill="#0085FF"/>
<path d="M28.0623 28.6371C27.8836 27.9769 27.7438 27.3012 27.6429 26.6332C27.573 26.1827 27.1458 25.8643 26.703 25.9419C26.2526 26.0118 25.9419 26.4313 26.0118 26.8818C26.1205 27.6196 26.2759 28.3575 26.47 29.0721C26.5865 29.5148 27.0448 29.7711 27.4797 29.6546C27.9225 29.5381 28.1788 29.0876 28.0623 28.6448V28.6371Z" fill="#0085FF"/>
<path d="M27.9224 17.0176C28.334 17.204 28.8234 17.0176 29.0098 16.5982C29.2894 15.9768 29.6001 15.3632 29.9496 14.7729C30.1826 14.3845 30.0506 13.8719 29.6622 13.6467C29.2661 13.4136 28.7612 13.5457 28.536 13.9341C28.1554 14.571 27.8136 15.2467 27.5107 15.9224C27.3243 16.3419 27.5107 16.8234 27.9302 17.0098L27.9224 17.0176Z" fill="#0085FF"/>
<path d="M26.8117 21.1574C27.2545 21.2428 27.6894 20.9554 27.7749 20.5049C27.9069 19.837 28.0778 19.169 28.2797 18.5166C28.4195 18.0816 28.1787 17.6156 27.7438 17.4835C27.3088 17.3437 26.8428 17.5845 26.7108 18.0195C26.4855 18.734 26.2991 19.4642 26.1593 20.1865C26.0739 20.637 26.3612 21.0642 26.8117 21.1496V21.1574Z" fill="#0085FF"/>
<path d="M26.6334 25.4371C27.0994 25.4371 27.4722 25.0487 27.4567 24.5827C27.4334 23.9924 27.4489 23.2545 27.5033 22.5322C27.5421 22.0817 27.2003 21.6856 26.7421 21.6468C26.2683 21.6001 25.8877 21.9497 25.8566 22.4079C25.7945 23.2001 25.779 23.9691 25.8023 24.6448C25.8178 25.0875 26.1829 25.4371 26.6256 25.4371H26.6334Z" fill="#0085FF"/>
<path d="M37.2895 7.7748C37.8953 7.45635 38.5167 7.16898 39.1536 6.91267C39.573 6.7418 39.7827 6.268 39.6196 5.84082C39.4487 5.41363 38.9749 5.2117 38.5477 5.37481C37.8565 5.64666 37.173 5.96508 36.5205 6.31459C36.1166 6.5243 35.9691 7.02916 36.1788 7.43305C36.3963 7.83694 36.8934 7.98451 37.2972 7.7748H37.2895Z" fill="#0085FF"/>
<path d="M31.0914 13.0719C31.503 12.5282 31.9458 11.9923 32.4118 11.503C32.7225 11.169 32.7069 10.6486 32.3807 10.3379C32.0467 10.0273 31.5263 10.0428 31.2157 10.369C30.7108 10.9049 30.2215 11.4797 29.7788 12.0778C29.5069 12.4428 29.5768 12.9632 29.9419 13.235C30.3069 13.5069 30.8196 13.437 31.0992 13.0719H31.0914Z" fill="#0085FF"/>
<path d="M33.8954 10.0816C34.4158 9.6389 34.9673 9.21945 35.5265 8.83886C35.8993 8.58255 36.0003 8.06994 35.744 7.68935C35.4877 7.30877 34.975 7.21559 34.5944 7.4719C33.9808 7.89132 33.3828 8.3418 32.8158 8.82336C32.4663 9.11851 32.4274 9.6389 32.7226 9.98842C33.0177 10.3379 33.5381 10.3768 33.8876 10.0816H33.8954Z" fill="#0085FF"/>
<path d="M64.6218 30.2294C64.2024 30.0585 63.7208 30.2604 63.5499 30.6876C63.4179 31.0138 63.2781 31.3401 63.1305 31.6507C62.9363 32.0624 63.115 32.5517 63.5266 32.7459C63.9305 32.94 64.4276 32.7614 64.6218 32.3497C64.7849 32.008 64.9325 31.6585 65.08 31.3012C65.2509 30.8818 65.049 30.4002 64.6218 30.2294Z" fill="#0085FF"/>
<path d="M71.1928 38.4702H68.653V35.3168C68.653 34.8663 68.2801 34.4934 67.8297 34.4934C67.3792 34.4934 67.0064 34.8663 67.0064 35.3168V38.4702H60.4898L54.5325 21.7244C55.6432 20.1166 56.2956 18.1749 56.2956 16.0855C56.2956 10.8272 52.1946 6.50876 46.9829 6.08934V5.63111C47.0606 5.63111 47.1382 5.62334 47.2237 5.63111H47.2703C47.6975 5.63111 48.0625 5.28935 48.0936 4.84663C48.1169 4.38838 47.7674 4.00003 47.3091 3.97673C47.2004 3.96896 47.0916 3.97673 46.9829 3.97673V0.823305C46.9829 0.365049 46.6101 0 46.1596 0C45.7091 0 45.3363 0.365049 45.3363 0.823305V3.97673C45.2508 3.97673 45.1732 3.96896 45.08 3.97673C44.6217 4.00003 44.28 4.38059 44.2955 4.83108C44.3188 5.28934 44.7149 5.6311 45.1654 5.61556C45.2198 5.61556 45.2741 5.62333 45.3285 5.61556V6.08934C40.1168 6.50876 36.0158 10.8272 36.0158 16.0855C36.0158 18.1826 36.6683 20.1322 37.7867 21.74L23.705 61.2587C23.6429 61.4451 23.6429 61.6315 23.705 61.8179C26.1361 68.6607 26.0585 69.3286 26.9594 69.3286C27.3012 69.3286 27.6119 69.1189 27.7284 68.7927L35.9071 46.6256C36.0857 46.144 36.5673 45.81 37.1032 45.81H37.6935C38.0353 45.81 38.3537 45.5926 38.4624 45.2741L40.2955 40.1246H51.9926L53.8257 45.2741C53.9344 45.5926 54.2451 45.81 54.5946 45.81H55.1849C55.7208 45.81 56.1946 46.1362 56.381 46.61L64.5753 68.785C64.8393 69.5073 65.8646 69.5073 66.1287 68.7772L68.5908 61.8024C68.653 61.6237 68.653 61.4374 68.5908 61.2509L61.0568 40.1168H66.9908V43.1304C66.9908 43.5887 67.3559 43.9537 67.8141 43.9537C68.2724 43.9537 68.6374 43.5887 68.6374 43.1304V40.1168H71.1773C71.6355 40.1168 72.0006 39.744 72.0006 39.2935C72.0006 38.843 71.6355 38.4702 71.1773 38.4702H71.1928ZM37.6547 16.0467C37.6547 11.3942 41.4761 7.6272 46.2062 7.6272C50.9363 7.6272 54.7577 11.402 54.7577 16.0467C54.7577 20.6914 50.9363 24.4584 46.2062 24.4584C41.4761 24.4584 37.6547 20.6836 37.6547 16.0467ZM37.1032 44.1557H37.0954C35.876 44.1557 34.7731 44.9168 34.3459 46.0353L26.9594 66.082L25.3439 61.5305L39.0139 23.2079C40.1867 24.3652 41.8722 25.3516 43.6508 25.7943L37.111 44.1557H37.1032ZM40.8858 38.4702L45.3052 26.0662C45.5771 26.0895 45.8567 26.1128 46.1441 26.1128C46.4314 26.1128 46.7033 26.0895 46.9829 26.0662L51.4024 38.4702H40.8935H40.8858ZM48.6295 25.7943C50.4237 25.3516 52.1402 24.3342 53.2897 23.2002L58.7344 38.4702H53.1499L48.6295 25.7943ZM66.952 61.5305L65.3364 66.082L57.9344 46.0353C57.515 44.9168 56.4199 44.1557 55.1927 44.1557H55.1849L53.748 40.1168H59.3247L66.952 61.5228V61.5305Z" fill="#0085FF"/>
<path d="M51.115 50.5169L49.5228 42.9595C49.3907 42.3226 48.5985 42.0818 48.1402 42.5401L42.6955 47.8916C42.6256 47.9615 42.5247 48.1091 42.4858 48.2256L36.6994 66.183C35.9382 68.5364 37.2586 71.0452 39.6353 71.7908C42.0198 72.5365 44.5519 71.2238 45.3053 68.886C45.6703 67.752 46.1441 66.2762 51.0917 50.9285C51.1306 50.8042 51.1306 50.6101 51.115 50.5091V50.5169ZM44.8082 65.0801L39.3479 63.3713L43.8062 49.5149L49.2665 51.2236L44.8082 65.0801ZM48.2179 44.777L49.2043 49.4838L44.8237 48.1091L48.2101 44.777H48.2179ZM43.7363 68.3966C43.2548 69.8801 41.647 70.7034 40.1324 70.2296C38.6256 69.7559 37.7945 68.1792 38.2683 66.6956L38.8353 64.9403L44.2955 66.649L43.7363 68.3966Z" fill="#0085FF"/>
<path d="M46.1517 19.9536C48.3109 19.9536 50.0662 18.2138 50.0662 16.07C50.0662 13.9263 48.3109 12.1865 46.1517 12.1865C43.9924 12.1865 42.2371 13.9263 42.2371 16.07C42.2371 18.2138 43.9924 19.9536 46.1517 19.9536ZM46.1517 13.8409C47.4021 13.8409 48.4196 14.8429 48.4196 16.07C48.4196 17.2972 47.4021 18.2992 46.1517 18.2992C44.9012 18.2992 43.8837 17.2972 43.8837 16.07C43.8837 14.8429 44.9012 13.8409 46.1517 13.8409Z" fill="#0085FF"/>
</svg>
