<svg width="73" height="72" viewBox="0 0 73 72" fill="none" xmlns="http://www.w3.org/2000/svg">
<path d="M25.0974 34.6566C24.8178 34.9439 24.5538 35.2468 24.2898 35.5574C23.9869 35.9223 24.018 36.4814 24.3597 36.8076C24.6936 37.1337 25.2216 37.1027 25.5245 36.7377C25.7574 36.4581 25.9904 36.1941 26.2389 35.9379C26.565 35.5962 26.5728 35.0371 26.2622 34.6876C25.9438 34.3382 25.4235 34.3227 25.0974 34.6644V34.6566Z" fill="#FCC400"/>
<path d="M23.4123 38.2597C23.0163 38.0267 22.5116 38.182 22.2941 38.6169C22.1078 38.9819 21.9369 39.3546 21.7816 39.7351C21.5952 40.1855 21.7816 40.7058 22.1932 40.9077C22.6125 41.1096 23.0939 40.9077 23.2803 40.4573C23.4201 40.1156 23.5754 39.7817 23.7385 39.4556C23.9559 39.0285 23.8084 38.4849 23.4046 38.2519L23.4123 38.2597Z" fill="#FCC400"/>
<path d="M28.8794 31.7834C28.5299 31.9698 28.1883 32.1717 27.8621 32.3813C27.4739 32.6298 27.3418 33.1734 27.5748 33.6005C27.8078 34.0198 28.3125 34.1596 28.7008 33.9111C28.9959 33.7247 29.2987 33.5461 29.6093 33.3753C30.0131 33.1579 30.184 32.6298 29.9821 32.1872C29.7802 31.7446 29.2832 31.566 28.8794 31.7834Z" fill="#FCC400"/>
<path d="M45.7066 34.2761C45.3727 33.9499 44.8446 33.9732 44.5418 34.3382C44.2389 34.7032 44.2622 35.2623 44.6039 35.5884C44.8602 35.8369 45.1086 36.0932 45.3416 36.365C45.66 36.7222 46.1803 36.7299 46.5064 36.396C46.8325 36.0621 46.8481 35.4953 46.5375 35.1458C46.2734 34.843 45.9939 34.5556 45.7066 34.2761Z" fill="#FCC400"/>
<path d="M48.6341 38.1277C48.4011 37.7084 47.8964 37.5608 47.5081 37.8171C47.1199 38.0656 46.9878 38.6092 47.2208 39.0285C47.3994 39.3469 47.5625 39.673 47.71 40.0069C47.9119 40.4495 48.4089 40.6282 48.8127 40.4107C49.2243 40.1933 49.3873 39.6653 49.1932 39.2226C49.0224 38.8499 48.836 38.4772 48.6419 38.1199L48.6341 38.1277Z" fill="#FCC400"/>
<path d="M42.8722 32.1018C42.5305 31.8999 42.1888 31.7135 41.8316 31.5427C41.4201 31.3408 40.9309 31.5427 40.7445 31.9853C40.5581 32.4279 40.7445 32.956 41.1561 33.1579C41.4744 33.3132 41.7773 33.4763 42.0801 33.6549C42.4762 33.8878 42.9809 33.7325 43.1983 33.3054C43.4158 32.8783 43.276 32.3348 42.8722 32.1018Z" fill="#FCC400"/>
<path d="M19.1649 31.9232H22.5351C22.9932 31.9232 23.3582 31.5505 23.3582 31.1001V30.1061H33.0804V31.0923C33.0804 31.5505 33.4531 31.9155 33.9035 31.9155H37.2659C37.724 31.9155 38.089 31.5427 38.089 31.0923V30.1061H47.8189V31.1001C47.8189 31.5582 48.1917 31.9232 48.6421 31.9232H52.0122C52.4704 31.9232 52.8353 31.5505 52.8353 31.1001V27.4737C52.8353 27.0155 52.4626 26.6506 52.0122 26.6506H48.6421C48.1839 26.6506 47.8189 27.0233 47.8189 27.4737V28.4599H38.089V27.4737C38.089 27.0155 37.7163 26.6506 37.2659 26.6506H33.9035C33.4453 26.6506 33.0804 27.0233 33.0804 27.4737V28.4599H23.3582V27.4737C23.3582 27.0155 22.9855 26.6506 22.5351 26.6506H19.1649C18.7068 26.6506 18.3418 27.0233 18.3418 27.4737V31.1001C18.3418 31.5582 18.7145 31.9232 19.1649 31.9232ZM49.4807 28.2968H51.2046V30.277H49.4807V28.2968ZM34.7344 28.2968H36.4505V30.2692H34.7344V28.2968ZM19.988 28.2968H21.7119V29.2597C21.7119 29.2597 21.7119 29.2752 21.7119 29.283C21.7119 29.2908 21.7119 29.2985 21.7119 29.3063V30.2692H19.988V28.2891V28.2968Z" fill="#FCC400"/>
<path d="M11.0734 52.1285H19.7084C20.1666 52.1285 20.5315 51.7558 20.5315 51.3054V42.7869C20.5315 42.3287 20.1588 41.9637 19.7084 41.9637H11.0734C10.6152 41.9637 10.2502 42.3365 10.2502 42.7869V51.3054C10.2502 51.7636 10.623 52.1285 11.0734 52.1285ZM11.8965 43.61H18.8853V50.4823H11.8965V43.61Z" fill="#FCC400"/>
<path d="M16.975 46.2192H13.8068C13.3486 46.2192 12.9836 46.5919 12.9836 47.0423C12.9836 47.4927 13.3564 47.8654 13.8068 47.8654H16.975C17.4332 47.8654 17.7981 47.4927 17.7981 47.0423C17.7981 46.5919 17.4254 46.2192 16.975 46.2192Z" fill="#FCC400"/>
<path d="M39.8749 41.956H31.2399C30.7817 41.956 30.4167 42.3287 30.4167 42.7791V51.2977C30.4167 51.7558 30.7895 52.1208 31.2399 52.1208H39.8749C40.3331 52.1208 40.698 51.7481 40.698 51.2977V42.7791C40.698 42.321 40.3253 41.956 39.8749 41.956ZM39.0518 50.4745H32.063V43.6022H39.0518V50.4745Z" fill="#FCC400"/>
<path d="M33.9733 47.8654H37.1415C37.5997 47.8654 37.9646 47.4927 37.9646 47.0423C37.9646 46.5919 37.5919 46.2192 37.1415 46.2192H33.9733C33.5151 46.2192 33.1501 46.5919 33.1501 47.0423C33.1501 47.4927 33.5229 47.8654 33.9733 47.8654Z" fill="#FCC400"/>
<path d="M51.4763 42.7869V51.3054C51.4763 51.7636 51.8491 52.1285 52.2994 52.1285H60.9345C61.3926 52.1285 61.7576 51.7558 61.7576 51.3054V42.7869C61.7576 42.3287 61.3849 41.9637 60.9345 41.9637H52.2994C51.8413 41.9637 51.4763 42.3365 51.4763 42.7869ZM53.1226 43.61H60.1113V50.4823H53.1226V43.61Z" fill="#FCC400"/>
<path d="M58.2089 46.2192H55.0407C54.5825 46.2192 54.2175 46.5919 54.2175 47.0423C54.2175 47.4927 54.5903 47.8654 55.0407 47.8654H58.2089C58.6671 47.8654 59.032 47.4927 59.032 47.0423C59.032 46.5919 58.6593 46.2192 58.2089 46.2192Z" fill="#FCC400"/>
<path d="M68.9016 9.18637H44.8059C46.1337 7.33046 46.0871 4.93098 44.635 3.1139L43.4469 1.64625H45.8464C46.3046 1.64625 46.6695 1.27351 46.6695 0.823121C46.6695 0.372733 46.2968 0 45.8464 0H25.3382C24.8801 0 24.5151 0.372733 24.5151 0.823121C24.5151 1.27351 24.8878 1.64625 25.3382 1.64625H27.7299L26.5496 3.1139C25.082 4.93098 25.0354 7.33046 26.371 9.18637H3.09836C1.38999 9.18637 0 10.5764 0 12.2925V64.7549C0 65.2131 0.372735 65.5781 0.823124 65.5781H29.1277L26.1303 70.3537H22.5039C22.0457 70.3537 21.6808 70.7265 21.6808 71.1769C21.6808 71.6272 22.0535 72 22.5039 72C57.8671 72 17.2623 72 52.2761 72C52.7343 72 53.0992 71.6272 53.0992 71.1769C53.0992 70.7265 52.7265 70.3537 52.2761 70.3537H48.6497L45.6523 65.5781H71.1846C71.6428 65.5781 72.0078 65.2053 72.0078 64.7549V12.2925C72.0078 10.5764 70.6178 9.18637 68.9094 9.18637H68.9016ZM28.0716 70.3537L31.0224 65.6557H43.742L46.6928 70.3537H28.0638H28.0716ZM27.8309 4.15445L29.8421 1.64625H41.3192L43.3382 4.15445C44.3632 5.42796 44.3632 7.13633 43.3382 8.40207C43.2994 8.44867 36.4349 21.3857 36.4038 21.44V12.1915C38.1665 11.811 39.4944 10.2347 39.4944 8.35548C39.4944 6.18896 37.7394 4.434 35.5807 4.434C33.4219 4.434 31.6592 6.19673 31.6592 8.35548C31.6592 10.2347 32.9871 11.811 34.7498 12.1915V21.4478C34.7032 21.3546 27.8775 8.48749 27.8154 8.40207C26.7903 7.13633 26.7903 5.42796 27.8154 4.15445H27.8309ZM35.5884 10.6385C34.3382 10.6385 33.321 9.62123 33.321 8.36325C33.321 7.10527 34.3382 6.088 35.5884 6.088C36.8387 6.088 37.8559 7.10527 37.8559 8.36325C37.8559 9.62123 36.8387 10.6385 35.5884 10.6385ZM3.10613 10.8404H27.2718L34.8663 25.1441C35.1613 25.7032 36 25.7498 36.3184 25.1441L43.9128 10.8481H68.9094C69.7092 10.8481 70.3615 11.5004 70.3615 12.308V56.7722H1.64625V12.308C1.64625 11.5004 2.29853 10.8481 3.09836 10.8481L3.10613 10.8404ZM1.65401 63.9318V58.4107H70.3537V63.9318H1.64625H1.65401Z" fill="#FCC400"/>
<path d="M27.5204 60.352H24.787C24.3288 60.352 23.9639 60.7248 23.9639 61.1751C23.9639 61.6255 24.3366 61.9983 24.787 61.9983H27.5204C27.9785 61.9983 28.3435 61.6255 28.3435 61.1751C28.3435 60.7248 27.9708 60.352 27.5204 60.352Z" fill="#FCC400"/>
<path d="M34.0897 60.352H31.3563C30.8982 60.352 30.5332 60.7248 30.5332 61.1751C30.5332 61.6255 30.9059 61.9983 31.3563 61.9983H34.0897C34.5479 61.9983 34.9128 61.6255 34.9128 61.1751C34.9128 60.7248 34.5401 60.352 34.0897 60.352Z" fill="#FCC400"/>
<path d="M40.6515 60.352H37.9181C37.4599 60.352 37.095 60.7248 37.095 61.1751C37.095 61.6255 37.4677 61.9983 37.9181 61.9983H40.6515C41.1096 61.9983 41.4746 61.6255 41.4746 61.1751C41.4746 60.7248 41.1019 60.352 40.6515 60.352Z" fill="#FCC400"/>
<path d="M47.2208 60.352H44.4874C44.0293 60.352 43.6643 60.7248 43.6643 61.1751C43.6643 61.6255 44.037 61.9983 44.4874 61.9983H47.2208C47.679 61.9983 48.0439 61.6255 48.0439 61.1751C48.0439 60.7248 47.6712 60.352 47.2208 60.352Z" fill="#FCC400"/>
</svg>
