<svg width="72" height="72" viewBox="0 0 72 72" fill="none" xmlns="http://www.w3.org/2000/svg">
<path d="M64.1425 51.6338H67.621C69.6708 51.6338 71.3402 49.9955 71.3402 47.9845V15.6842C71.3402 13.6732 69.6708 12.0349 67.621 12.0349H57.2011L45.6553 0.768682C45.1429 0.263991 44.2577 0.628929 44.2577 1.35879V12.0427H11.577C9.52719 12.0427 7.85784 13.681 7.85784 15.692V20.3662H4.37932C2.3295 20.3662 0.660156 22.0045 0.660156 24.0155V56.3157C0.660156 58.3267 2.3295 59.9651 4.37932 59.9651H14.7993L26.3528 71.2391C26.8731 71.7438 27.7504 71.3789 27.7504 70.649V59.9651H60.4311C62.4809 59.9651 64.1503 58.3267 64.1503 56.3157V51.6416L64.1425 51.6338ZM9.50391 15.692C9.50391 14.5894 10.4279 13.6965 11.5692 13.6965H45.073C45.5311 13.6965 45.896 13.3238 45.896 12.8735V3.32318L56.2849 13.4636C56.4402 13.6111 56.6421 13.6965 56.8595 13.6965H67.621C68.7624 13.6965 69.6864 14.5894 69.6864 15.692V47.9922C69.6864 49.0948 68.7624 49.9877 67.621 49.9877H64.1425V24.0155C64.1425 22.0045 62.4732 20.3662 60.4233 20.3662H9.50391V15.692ZM62.4965 56.308C62.4965 57.4105 61.5725 58.3035 60.4311 58.3035H26.9274C26.4693 58.3035 26.1044 58.6761 26.1044 59.1265V68.6768L15.7155 58.5364C15.5602 58.3889 15.3583 58.3035 15.1409 58.3035H4.37932C3.23795 58.3035 2.31399 57.4105 2.31399 56.308V24.0078C2.31399 22.9052 3.23795 22.0123 4.37932 22.0123H60.4311C61.5725 22.0123 62.4965 22.9052 62.4965 24.0078V56.308Z" fill="#FF2EC4"/>
<path d="M32.4013 27.0048C22.6103 27.0048 13.4249 31.6558 6.52228 40.088C6.27382 40.3908 6.27382 40.8256 6.52228 41.1284C13.4249 49.5684 22.6181 54.2116 32.4013 54.2116C42.1846 54.2116 51.3777 49.5607 58.2803 41.1284C58.5288 40.8256 58.5288 40.3908 58.2803 40.0802C51.3777 31.6403 42.1846 26.9971 32.4013 26.9971V27.0048ZM32.4013 52.5733C23.3246 52.5733 14.7604 48.3339 8.23048 40.616C14.7604 32.8981 23.3169 28.6587 32.4013 28.6587C41.4857 28.6587 50.0422 32.8981 56.5721 40.616C50.0422 48.3339 41.478 52.5733 32.4013 52.5733Z" fill="#FF2EC4"/>
<path d="M32.4011 31.8499C27.5871 31.8499 23.666 35.7787 23.666 40.616C23.666 45.4533 27.5871 49.3821 32.4011 49.3821C37.215 49.3821 41.1361 45.4533 41.1361 40.616C41.1361 35.7787 37.215 31.8499 32.4011 31.8499ZM32.4011 47.7282C28.4955 47.7282 25.3121 44.537 25.3121 40.616C25.3121 36.6949 28.4955 33.5037 32.4011 33.5037C36.3066 33.5037 39.49 36.6949 39.49 40.616C39.49 44.537 36.3066 47.7282 32.4011 47.7282Z" fill="#FF2EC4"/>
<path d="M32.401 36.2834C30.0173 36.2834 28.084 38.2245 28.084 40.616C28.084 43.0074 30.0251 44.9485 32.401 44.9485C34.777 44.9485 36.7181 43.0074 36.7181 40.616C36.7181 38.2245 34.777 36.2834 32.401 36.2834ZM32.401 43.3025C30.9258 43.3025 29.7301 42.099 29.7301 40.616C29.7301 39.133 30.9258 37.9295 32.401 37.9295C33.8763 37.9295 35.072 39.133 35.072 40.616C35.072 42.099 33.8763 43.3025 32.401 43.3025Z" fill="#FF2EC4"/>
<path d="M71.1769 63.5212H64.3675C63.9094 63.5212 63.5444 63.8939 63.5444 64.3442V71.1769C63.5444 71.635 63.9171 72 64.3675 72H71.1769C71.635 72 72 71.6273 72 71.1769V64.3442C72 63.8861 71.6273 63.5212 71.1769 63.5212ZM70.3539 70.3539H65.1905V65.1672H70.3539V70.3539Z" fill="#FF2EC4"/>
<path d="M59.212 63.5212H52.4026C51.9445 63.5212 51.5796 63.8939 51.5796 64.3442V71.1769C51.5796 71.635 51.9523 72 52.4026 72H59.212C59.6701 72 60.0351 71.6273 60.0351 71.1769V64.3442C60.0351 63.8861 59.6624 63.5212 59.212 63.5212ZM58.389 70.3539H53.2334V65.1672H58.389V70.3539Z" fill="#FF2EC4"/>
<path d="M47.2546 63.5212H40.4451C39.987 63.5212 39.6221 63.8939 39.6221 64.3442V71.1769C39.6221 71.635 39.9948 72 40.4451 72H47.2546C47.7127 72 48.0776 71.6273 48.0776 71.1769V64.3442C48.0776 63.8861 47.7049 63.5212 47.2546 63.5212ZM46.4315 70.3539H41.2681V65.1672H46.4315V70.3539Z" fill="#FF2EC4"/>
<path d="M24.7454 8.4788H31.5548C32.0129 8.4788 32.3778 8.1061 32.3778 7.65577V0.823033C32.3778 0.364929 32.0052 0 31.5548 0H24.7454C24.2873 0 23.9224 0.372693 23.9224 0.823033V7.65577C23.9224 8.11387 24.2951 8.4788 24.7454 8.4788ZM25.5684 1.64607H30.7318V6.82496H25.5684V1.64607Z" fill="#FF2EC4"/>
<path d="M12.7884 8.4788H19.5978C20.0559 8.4788 20.4209 8.1061 20.4209 7.65577V0.823033C20.4209 0.364929 20.0482 0 19.5978 0H12.7884C12.3303 0 11.9653 0.372693 11.9653 0.823033V7.65577C11.9653 8.11387 12.338 8.4788 12.7884 8.4788ZM13.6114 1.64607H18.7748V6.82496H13.6114V1.64607Z" fill="#FF2EC4"/>
<path d="M7.63245 8.4788C8.09055 8.4788 8.45548 8.1061 8.45548 7.65577V0.823033C8.45548 0.364929 8.08279 0 7.63245 0H0.823033C0.364929 0 0 0.372693 0 0.823033V7.65577C0 8.11387 0.372693 8.4788 0.823033 8.4788H7.63245ZM1.64607 1.64607H6.80942V6.82496H1.64607V1.64607Z" fill="#FF2EC4"/>
</svg>
