<svg width="74" height="76" viewBox="0 0 74 76" fill="none" xmlns="http://www.w3.org/2000/svg">
<path d="M62.2377 68.3689H62.2129L15.1468 68.5C15.023 68.5 14.8662 68.541 14.7754 68.582L8.50206 71.5C7.82521 71.8115 7.83347 72.7787 8.51033 73.082L14.8166 75.9262C14.9074 75.9672 15.056 76 15.1798 76C67.8754 75.8525 59.1919 75.8771 62.246 75.8689C64.3343 75.8607 66.0099 74.1639 66.0017 72.0984C65.9934 70.0328 64.3013 68.3689 62.2294 68.3689H62.2377ZM16.0383 70.2377L59.6458 70.1148L59.6706 74.1312L16.063 74.2541C16.0548 72.6475 16.0465 71.6312 16.0383 70.2377ZM14.2884 70.7377C14.2966 72.6066 14.2883 71.9098 14.3049 73.7787L10.9784 72.2787L14.2884 70.7377ZM62.2542 74.1312H61.4288L61.404 70.1148H62.2294C62.2294 70.1148 62.2377 70.1148 62.246 70.1148C63.3603 70.1148 64.26 71.0082 64.2683 72.1148C64.2683 73.2295 63.3685 74.1312 62.2625 74.1394L62.2542 74.1312Z" fill="#FFA700"/>
<path d="M74 12.959C74 10.2131 71.7548 7.97541 68.9896 7.97541H58.5066V0.868852C58.5066 0.385246 58.1104 0 57.6317 0H16.3766C15.8896 0 15.5016 0.393443 15.5016 0.868852V7.97541H5.01863C2.25343 7.97541 0 10.2131 0 12.959V54.6311C0 57.377 2.25343 59.6148 5.01863 59.6148H28.6095L21.519 65.082C20.8587 65.5902 21.2219 66.6393 22.0555 66.6393H51.9362C52.7699 66.6393 53.1331 65.5902 52.4727 65.082L45.3823 59.6148H68.9814C71.7466 59.6148 73.9917 57.377 73.9917 54.6311C73.9917 8.10656 73.9917 19.3197 73.9917 12.959H74ZM24.6226 64.9016L31.4737 59.6229H42.5428L49.3939 64.9016H24.6226ZM68.9896 9.71311C70.7808 9.71311 72.2418 11.1721 72.2418 12.959V52.2705H68.354V14.4508C68.354 13.9672 67.9578 13.582 67.4791 13.582H58.5066V9.71311H68.9896ZM16.3766 50.2623H57.6317C58.1187 50.2623 58.5066 49.8688 58.5066 49.3934V15.3197H66.5959V52.2705H7.39588V15.3197H15.5016V49.3934C15.5016 49.877 15.8978 50.2623 16.3766 50.2623ZM17.2515 1.7377H56.7485V48.5246H17.2515V1.7377ZM5.01863 9.71311H15.5016V13.582H6.52092C6.03392 13.582 5.64597 13.9754 5.64597 14.4508V52.2705H1.74992V12.959C1.74992 11.1721 3.21919 9.71311 5.01863 9.71311ZM68.9896 57.877H5.01863C3.21919 57.877 1.74992 56.418 1.74992 54.6311V54.0164H72.2418V54.6311C72.2418 56.418 70.7808 57.877 68.9896 57.877Z" fill="#FFA700"/>
<path d="M20.7844 24.7787H53.2321C53.7191 24.7787 54.1071 24.3852 54.1071 23.9098V5.31966C54.1071 4.83605 53.7109 4.45081 53.2321 4.45081H20.7844C20.2974 4.45081 19.9094 4.84425 19.9094 5.31966V23.9098C19.9094 24.3934 20.3056 24.7787 20.7844 24.7787ZM21.6593 23.041V12.7541H52.3572V23.041H21.6593ZM52.3572 6.19671V11.0164H21.6593V6.19671H52.3572Z" fill="#FFA700"/>
<path d="M20.7844 28.7459H53.2321C53.7191 28.7459 54.1071 28.3525 54.1071 27.8771C54.1071 27.4016 53.7109 27.0082 53.2321 27.0082H20.7844C20.2974 27.0082 19.9094 27.4016 19.9094 27.8771C19.9094 28.3525 20.3056 28.7459 20.7844 28.7459Z" fill="#FFA700"/>
<path d="M20.7844 43H28.172C28.659 43 29.047 42.6066 29.047 42.1312C29.047 41.6557 28.6507 41.2623 28.172 41.2623H20.7844C20.2974 41.2623 19.9094 41.6557 19.9094 42.1312C19.9094 42.6066 20.3056 43 20.7844 43Z" fill="#FFA700"/>
<path d="M20.7844 46.8443H28.172C28.659 46.8443 29.047 46.4508 29.047 45.9754C29.047 45.5 28.6507 45.1066 28.172 45.1066H20.7844C20.2974 45.1066 19.9094 45.5 19.9094 45.9754C19.9094 46.4508 20.3056 46.8443 20.7844 46.8443Z" fill="#FFA700"/>
<path d="M40.7018 41.2623H33.3142C32.8272 41.2623 32.4392 41.6557 32.4392 42.1312C32.4392 42.6066 32.8354 43 33.3142 43H40.7018C41.1888 43 41.5767 42.6066 41.5767 42.1312C41.5767 41.6557 41.1805 41.2623 40.7018 41.2623Z" fill="#FFA700"/>
<path d="M40.7018 45.0984H33.3142C32.8272 45.0984 32.4392 45.4918 32.4392 45.9672C32.4392 46.4426 32.8354 46.8361 33.3142 46.8361H40.7018C41.1888 46.8361 41.5767 46.4426 41.5767 45.9672C41.5767 45.4918 41.1805 45.0984 40.7018 45.0984Z" fill="#FFA700"/>
<path d="M53.2321 41.2623H45.8444C45.3574 41.2623 44.9695 41.6557 44.9695 42.1312C44.9695 42.6066 45.3657 43 45.8444 43H53.2321C53.7191 43 54.107 42.6066 54.107 42.1312C54.107 41.6557 53.7108 41.2623 53.2321 41.2623Z" fill="#FFA700"/>
<path d="M53.2321 45.0984H45.8444C45.3574 45.0984 44.9695 45.4918 44.9695 45.9672C44.9695 46.4426 45.3657 46.8361 45.8444 46.8361H53.2321C53.7191 46.8361 54.107 46.4426 54.107 45.9672C54.107 45.4918 53.7108 45.0984 53.2321 45.0984Z" fill="#FFA700"/>
<path d="M28.4694 14.918C27.9824 14.918 27.5945 15.3115 27.5945 15.7869V19.7787C27.5945 20.2623 27.9907 20.6475 28.4694 20.6475C28.9482 20.6475 29.3444 20.2541 29.3444 19.7787V15.7869C29.3444 15.3033 28.9482 14.918 28.4694 14.918Z" fill="#FFA700"/>
<path d="M37.0122 14.918C36.5252 14.918 36.1372 15.3115 36.1372 15.7869V19.7787C36.1372 20.2623 36.5334 20.6475 37.0122 20.6475C37.4909 20.6475 37.8871 20.2541 37.8871 19.7787V15.7869C37.8871 15.3033 37.4909 14.918 37.0122 14.918Z" fill="#FFA700"/>
<path d="M45.5476 14.918C45.0606 14.918 44.6726 15.3115 44.6726 15.7869V19.7787C44.6726 20.2623 45.0688 20.6475 45.5476 20.6475C46.0263 20.6475 46.4225 20.2541 46.4225 19.7787V15.7869C46.4225 15.3033 46.0263 14.918 45.5476 14.918Z" fill="#FFA700"/>
<path d="M20.7844 38.7541H28.172C28.659 38.7541 29.047 38.3607 29.047 37.8852V31.8689C29.047 31.3852 28.6507 31 28.172 31H20.7844C20.2974 31 19.9094 31.3934 19.9094 31.8689V37.8852C19.9094 38.3689 20.3056 38.7541 20.7844 38.7541ZM21.6593 32.7377H27.297V37.0164H21.6593V32.7377Z" fill="#FFA700"/>
<path d="M40.7018 31H33.3142C32.8272 31 32.4392 31.3934 32.4392 31.8689V37.8852C32.4392 38.3689 32.8354 38.7541 33.3142 38.7541H40.7018C41.1888 38.7541 41.5767 38.3607 41.5767 37.8852V31.8689C41.5767 31.3852 41.1805 31 40.7018 31ZM39.8268 37.0164H34.1891V32.7377H39.8268V37.0164Z" fill="#FFA700"/>
<path d="M53.2321 31H45.8444C45.3574 31 44.9695 31.3934 44.9695 31.8689V37.8852C44.9695 38.3689 45.3657 38.7541 45.8444 38.7541H53.2321C53.7191 38.7541 54.107 38.3607 54.107 37.8852V31.8689C54.107 31.3852 53.7108 31 53.2321 31ZM52.3571 37.0164H46.7194V32.7377H52.3571V37.0164Z" fill="#FFA700"/>
<path d="M48.329 55H46.9257C46.4387 55 46.0508 55.3934 46.0508 55.8689C46.0508 56.3443 46.447 56.7377 46.9257 56.7377H48.329C48.816 56.7377 49.2039 56.3443 49.2039 55.8689C49.2039 55.3934 48.8077 55 48.329 55Z" fill="#FFA700"/>
<path d="M41.4862 55H40.083C39.596 55 39.208 55.3934 39.208 55.8689C39.208 56.3443 39.6042 56.7377 40.083 56.7377H41.4862C41.9732 56.7377 42.3612 56.3443 42.3612 55.8689C42.3612 55.3934 41.965 55 41.4862 55Z" fill="#FFA700"/>
<path d="M34.6434 55H33.2402C32.7532 55 32.3652 55.3934 32.3652 55.8689C32.3652 56.3443 32.7614 56.7377 33.2402 56.7377H34.6434C35.1304 56.7377 35.5184 56.3443 35.5184 55.8689C35.5184 55.3934 35.1222 55 34.6434 55Z" fill="#FFA700"/>
<path d="M27.8006 55H26.3974C25.9104 55 25.5225 55.3934 25.5225 55.8689C25.5225 56.3443 25.9187 56.7377 26.3974 56.7377H27.8006C28.2877 56.7377 28.6756 56.3443 28.6756 55.8689C28.6756 55.3934 28.2794 55 27.8006 55Z" fill="#FFA700"/>
</svg>
