<svg width="250" height="252" viewBox="0 0 250 252" fill="none" xmlns="http://www.w3.org/2000/svg">
<path d="M37.5697 62.6668L36.6244 59.2126L32.716 59.3905C32.3535 58.6299 31.9349 57.9089 31.4602 57.2345L33.5286 53.9199L30.9828 51.4014L27.6859 53.5095C26.9992 53.0389 26.2755 52.6257 25.5204 52.2755L25.6558 48.3644L22.1907 47.4561L20.3931 50.9253C19.5709 50.861 18.7365 50.8679 17.8979 50.9431L16.0593 47.4903L12.6051 48.4355L12.7829 52.3439C12.0223 52.7064 11.3014 53.1251 10.627 53.5997L7.31228 51.5313L4.7938 54.0772L6.90188 57.3741C6.43129 58.0608 6.01816 58.7845 5.66795 59.5396L1.7582 59.4042L0.849854 62.8693L4.3191 64.6669C4.2548 65.489 4.26164 66.3235 4.33688 67.1621L0.884054 69.0007L1.82934 72.4549L5.73772 72.277C6.10024 73.0377 6.51885 73.7586 6.99354 74.433L4.92513 77.7477L7.47097 80.2662L10.7679 78.1581C11.4546 78.6287 12.1783 79.0418 12.9334 79.392L12.798 83.3031L16.2631 84.2115L18.0607 80.7422C18.8828 80.8065 19.7173 80.7997 20.5559 80.7244L22.3945 84.1773L25.8487 83.232L25.6708 79.3236C26.4314 78.9611 27.1524 78.5425 27.8268 78.0678L31.1415 80.1362L33.66 77.5904L31.5519 74.2935C32.0225 73.6068 32.4356 72.8831 32.7858 72.1279L36.6969 72.2634L37.6053 68.7982L34.136 67.0007C34.2003 66.1785 34.1935 65.344 34.1182 64.5054L37.5711 62.6668H37.5697ZM21.6612 74.7258C16.7501 76.0705 11.6776 73.1799 10.3328 68.2674C8.98809 63.3563 11.8787 58.2838 16.7912 56.939C21.7023 55.5943 26.7748 58.4849 28.1196 63.3974C29.4643 68.3085 26.5737 73.381 21.6612 74.7258Z" fill="black"/>
<path d="M95.9327 27.5052L94.3144 21.594L87.6276 21.8977C87.0079 20.5954 86.2897 19.3615 85.4785 18.2082L89.0188 12.5365L84.6618 8.22593L79.0215 11.8334C77.8464 11.0276 76.6084 10.3217 75.317 9.72116L75.5482 3.0289L69.6192 1.47485L66.5426 7.4106C65.1363 7.30116 63.7081 7.31211 62.2731 7.4407L59.128 1.53094L53.2169 3.14928L53.5206 9.83607C52.2197 10.4558 50.9844 11.174 49.8311 11.9852L44.1594 8.44481L39.8488 12.8019L43.4562 18.4422C42.6505 19.6159 41.9446 20.8553 41.3441 22.1467L34.6532 21.9155L33.0991 27.8444L39.0349 30.9211C38.9241 32.3274 38.9364 33.7556 39.065 35.1906L33.1552 38.3356L34.7736 44.2467L41.4603 43.943C42.08 45.2454 42.7982 46.4793 43.6095 47.6325L40.0691 53.3043L44.4262 57.6148L50.0664 54.0074C51.2402 54.8132 52.4796 55.5191 53.771 56.1196L53.5398 62.8105L59.4687 64.3646L62.5453 58.4288C63.9516 58.5396 65.3798 58.5273 66.8148 58.3987L69.9599 64.3085L75.871 62.6901L75.5673 56.0033C76.8696 55.3836 78.1036 54.6654 79.2568 53.8542L84.9285 57.3946L89.2391 53.0375L85.6317 47.3972C86.4374 46.2221 87.1433 44.9841 87.7439 43.6927L94.4361 43.9239L95.9902 37.995L90.0544 34.9184C90.1652 33.512 90.1529 32.0839 90.0243 30.6488L95.9341 27.5038L95.9327 27.5052ZM68.7095 48.1401C60.3045 50.441 51.6259 45.4944 49.325 37.0894C47.024 28.6844 51.9707 20.0058 60.3757 17.7048C68.7807 15.4038 77.4593 20.3505 79.7602 28.7555C82.0612 37.1605 77.1145 45.8391 68.7095 48.1401Z" fill="white"/>
<path d="M59.4686 64.6697C59.444 64.6697 59.418 64.667 59.392 64.6601L53.4631 63.1061C53.3276 63.0705 53.2332 62.9446 53.2387 62.8051L53.4631 56.3112C52.2852 55.7517 51.1416 55.1005 50.0609 54.3714L44.5875 57.8721C44.4685 57.9473 44.3139 57.9309 44.214 57.8324L39.8569 53.5219C39.7571 53.4234 39.7393 53.2674 39.8132 53.1484L43.2482 47.6449C42.515 46.5834 41.8515 45.4452 41.2742 44.255L34.7858 44.5505C34.6462 44.5628 34.519 44.4657 34.4821 44.3289L32.8637 38.4178C32.8268 38.2823 32.8884 38.1387 33.0128 38.073L38.7461 35.021C38.6367 33.7023 38.6271 32.3849 38.7174 31.099L32.9581 28.114C32.8336 28.0497 32.7693 27.9061 32.8049 27.7706L34.359 21.8417C34.3945 21.7063 34.5217 21.6037 34.6599 21.6174L41.1538 21.8404C41.7133 20.6625 42.3645 19.5189 43.0936 18.4381L39.5929 12.9648C39.5177 12.8458 39.5341 12.6912 39.6326 12.5913L43.9432 8.23423C44.0417 8.13436 44.1962 8.11658 44.3166 8.19045L49.8201 11.6269C50.8817 10.8936 52.0198 10.2301 53.21 9.65284L52.9159 3.16441C52.909 3.02351 53.0007 2.89765 53.1375 2.86072L59.0486 1.24238C59.1854 1.20544 59.3277 1.267 59.3934 1.39149L62.4454 7.12478C63.7641 7.01534 65.0815 7.00576 66.3674 7.09605L69.3524 1.33677C69.4167 1.21228 69.559 1.14935 69.6958 1.18355L75.6247 2.7376C75.7601 2.77317 75.8545 2.89902 75.849 3.03856L75.6247 9.53246C76.8039 10.092 77.9462 10.7431 79.0269 11.4723L84.5003 7.97157C84.6193 7.89633 84.7739 7.91274 84.8737 8.01124L89.2308 12.3218C89.3307 12.4203 89.3484 12.5763 89.2746 12.6953L85.8395 18.1987C86.5728 19.2603 87.2363 20.3985 87.8136 21.5886L94.302 21.2932C94.4442 21.2836 94.5687 21.378 94.6057 21.5148L96.224 27.4259C96.261 27.5613 96.1994 27.705 96.0749 27.7706L90.3416 30.8226C90.4511 32.1414 90.4606 33.4588 90.3703 34.7447L96.1296 37.7297C96.2541 37.794 96.3184 37.9376 96.2828 38.073L94.7288 44.0019C94.6932 44.1374 94.5701 44.2441 94.4278 44.2263L87.9339 44.0033C87.3744 45.1812 86.7233 46.3248 85.9941 47.4055L89.4948 52.8789C89.5701 52.9979 89.5536 53.1525 89.4552 53.2524L85.1446 57.6095C85.0461 57.7093 84.8915 57.7271 84.7711 57.6532L79.2677 54.2182C78.2075 54.9501 77.0679 55.6135 75.8778 56.1922L76.1732 62.6806C76.1801 62.8215 76.0884 62.9474 75.9516 62.9843L70.0405 64.6027C69.9037 64.6382 69.7614 64.578 69.6958 64.4535L66.6438 58.7203C65.325 58.8297 64.0076 58.8393 62.7217 58.749L59.7367 64.5083C59.6847 64.6095 59.5794 64.6711 59.47 64.6711L59.4686 64.6697ZM53.8489 62.5849L59.3126 64.0172L62.2785 58.2948C62.3346 58.1867 62.4508 58.1238 62.5685 58.1334C63.9474 58.2415 65.3674 58.2319 66.7874 58.1033C66.9064 58.091 67.0227 58.1553 67.0801 58.262L70.113 63.9583L75.5604 62.4672L75.2676 56.0198C75.2622 55.8995 75.3292 55.7873 75.4386 55.7353C76.7259 55.1224 77.953 54.4083 79.0843 53.6121C79.1828 53.5424 79.3142 53.5397 79.4168 53.6026L84.8847 57.0157L88.856 53.0007L85.3785 47.5629C85.3129 47.4616 85.3156 47.3303 85.384 47.2304C86.1774 46.0731 86.8792 44.8405 87.4716 43.5683C87.5222 43.4589 87.6316 43.3795 87.7547 43.3946L94.2062 43.6162L95.6385 38.1524L89.9162 35.1866C89.8095 35.1305 89.7452 35.0169 89.7547 34.8965C89.8628 33.5162 89.8532 32.0976 89.7247 30.6776C89.7137 30.5573 89.7766 30.4423 89.8833 30.3849L95.5797 27.352L94.0886 21.9046L87.6412 22.1974C87.5222 22.2042 87.4073 22.1358 87.3566 22.0264C86.7438 20.7405 86.0297 19.5134 85.2335 18.3807C85.1637 18.2822 85.161 18.1509 85.2239 18.0483L88.6371 12.5804L84.622 8.60906L79.1842 12.0865C79.083 12.1508 78.9516 12.1494 78.8518 12.081C77.6945 11.2876 76.4633 10.5858 75.1897 9.99347C75.0802 9.94286 75.0118 9.83068 75.0159 9.71029L75.2389 3.25881L69.7751 1.82651L66.8093 7.54886C66.7532 7.65693 66.6383 7.72259 66.5193 7.71028C65.139 7.60221 63.719 7.61178 62.3004 7.74038C62.1813 7.75269 62.0651 7.68839 62.0076 7.58169L58.9761 1.88534L53.5287 3.37646L53.8215 9.82384C53.827 9.94423 53.7599 10.0564 53.6505 10.1084C52.3646 10.7212 51.1375 11.4353 50.0048 12.2315C49.9063 12.3013 49.7749 12.304 49.6723 12.2411L44.2045 8.82794L40.2331 12.843L43.7106 18.2808C43.7763 18.382 43.7735 18.5134 43.7051 18.6132C42.9117 19.7706 42.2085 21.0031 41.6176 22.2754C41.5669 22.3848 41.4616 22.4642 41.3344 22.4491L34.8829 22.2275L33.4506 27.6913L39.1729 30.6571C39.2796 30.7132 39.3439 30.8267 39.3344 30.9471C39.2263 32.3274 39.2359 33.7474 39.3645 35.1674C39.3754 35.2878 39.3125 35.4027 39.2058 35.4602L33.5094 38.4916L35.0005 43.939L41.4479 43.6463C41.5615 43.634 41.6805 43.7078 41.7325 43.8173C42.3453 45.1032 43.0594 46.3303 43.8556 47.463C43.9254 47.5615 43.9281 47.6928 43.8652 47.7954L40.452 53.2633L44.4671 57.2346L49.9049 53.7572C50.0061 53.6929 50.1375 53.6942 50.2373 53.7626C51.3947 54.5561 52.6272 55.2592 53.8995 55.8502C54.0089 55.9008 54.0773 56.013 54.0732 56.1334L53.8502 62.5849H53.8489ZM64.5179 49.0075C61.7614 49.0075 59.039 48.292 56.5807 46.8898C52.8502 44.7626 50.1703 41.3097 49.0362 37.1674C47.9022 33.0251 48.4494 28.6886 50.5752 24.958C52.7025 21.2275 56.1553 18.5476 60.2976 17.4135C64.4399 16.2794 68.7765 16.8266 72.507 18.9525C76.2375 21.0797 78.9174 24.5326 80.0515 28.6749C81.1856 32.8172 80.6384 37.1524 78.5125 40.8843C76.3853 44.6162 72.9324 47.2947 68.7901 48.4288C67.3784 48.8159 65.9433 49.0061 64.5179 49.0061V49.0075ZM64.5671 17.4381C63.195 17.4381 61.8147 17.6228 60.4549 17.9949C56.4672 19.0866 53.1443 21.6653 51.0964 25.2576C49.0485 28.8486 48.5232 33.0224 49.6149 37.0101C50.7066 40.9978 53.2852 44.3207 56.8776 46.3686C60.4686 48.4165 64.6424 48.9418 68.6301 47.8501C72.6178 46.7585 75.9407 44.1798 77.9886 40.5874C80.0365 36.9964 80.5618 32.8227 79.4701 28.8349C78.3785 24.8472 75.7998 21.5243 72.2074 19.4764C69.8408 18.1262 67.2197 17.4381 64.5671 17.4381Z" fill="black"/>
<path d="M231.188 56.0498H41.5273C36.1903 56.0498 31.8638 60.3763 31.8638 65.7134V200.983C31.8638 206.32 36.1903 210.646 41.5273 210.646H231.188C236.525 210.646 240.852 206.32 240.852 200.983V65.7134C240.852 60.3763 236.525 56.0498 231.188 56.0498Z" fill="white"/>
<path d="M231.187 210.947H41.5273C36.032 210.947 31.5627 206.476 31.5627 200.983V65.7148C31.5627 60.2209 36.0334 55.7502 41.5273 55.7502H231.187C236.682 55.7502 241.151 60.2209 241.151 65.7148V200.983C241.151 206.476 236.681 210.947 231.187 210.947ZM41.5273 56.3508C36.3644 56.3508 32.1633 60.5506 32.1633 65.7134V200.981C32.1633 206.144 36.3631 210.344 41.5273 210.344H231.187C236.35 210.344 240.551 206.144 240.551 200.981V65.7134C240.551 60.5506 236.351 56.3508 231.187 56.3508H41.5273Z" fill="black"/>
<path d="M222.124 65.634H49.7666C45.9973 65.634 42.9417 68.6897 42.9417 72.459V184.72C42.9417 188.489 45.9973 191.545 49.7666 191.545H222.124C225.893 191.545 228.949 188.489 228.949 184.72V72.459C228.949 68.6897 225.893 65.634 222.124 65.634Z" fill="white"/>
<path d="M222.122 191.846H49.7653C45.8364 191.846 42.6394 188.649 42.6394 184.72V72.4577C42.6394 68.5288 45.8364 65.3318 49.7653 65.3318H222.122C226.051 65.3318 229.248 68.5288 229.248 72.4577V184.72C229.248 188.649 226.051 191.846 222.122 191.846ZM49.7653 65.9351C46.1675 65.9351 43.2413 68.8612 43.2413 72.4591V184.721C43.2413 188.319 46.1675 191.245 49.7653 191.245H222.122C225.72 191.245 228.646 188.319 228.646 184.721V72.4591C228.646 68.8612 225.72 65.9351 222.122 65.9351H49.7653Z" fill="black"/>
<path d="M126.089 82.4947C128.908 89.9352 131.725 113.591 120.874 128.258C110.037 142.908 83.9913 150.715 66.7436 139.19C45.9418 125.29 48.9336 90.6165 61.5999 76.1307C68.693 68.0185 75.4591 70.0814 85.2471 58.4466C95.0105 46.8419 93.0967 39.062 101.64 34.3725C111.914 28.735 126.908 33.1783 129.57 39.2768C131.951 44.7297 124.35 49.1743 122.897 61.9186C122.625 64.3099 122.651 66.2743 122.852 68.0062C123.743 75.6506 125.58 81.1513 126.089 82.4933V82.4947Z" fill="black"/>
<path d="M96.9518 28.5915C98.5565 30.9595 99.8369 38.6052 96.2774 41.0184C92.7179 43.4301 85.6672 39.6955 84.0625 37.3275C82.4579 34.9595 84.042 31.0839 87.6015 28.6722C91.1611 26.2604 95.3472 26.2234 96.9518 28.5915Z" fill="black"/>
<path d="M87.9654 107.807C87.9654 107.807 80.2622 88.4456 84.7998 84.3607C85.0378 84.1473 88.1035 83.834 91.2431 86.7068C94.2075 89.4182 97.2609 95.3211 97.2609 95.3211L98.2678 108.686L87.964 107.808L87.9654 107.807Z" fill="white"/>
<path d="M98.2691 108.986C98.2609 108.986 98.2527 108.986 98.2431 108.986L87.9393 108.108C87.8258 108.098 87.7273 108.026 87.6849 107.919C87.3675 107.12 79.957 88.3156 84.5987 84.1377C85.0255 83.7533 88.2649 83.5741 91.4455 86.4852C94.4154 89.2021 97.4018 94.9394 97.5276 95.1829C97.5468 95.2185 97.5577 95.2582 97.5605 95.2992L98.5673 108.665C98.5742 108.752 98.5413 108.838 98.4784 108.901C98.4223 108.957 98.3457 108.989 98.2663 108.989L98.2691 108.986ZM88.1774 107.524L97.9421 108.357L96.9667 95.4059C96.6521 94.8095 93.782 89.4374 91.0406 86.9298C88.109 84.2472 85.3196 84.4688 84.9831 84.6028C80.9119 88.3388 87.4345 105.602 88.1774 107.525V107.524Z" fill="black"/>
<path d="M146.557 72.6642C146.557 72.6642 149.558 73.3113 151.919 76.9556C156.628 84.2266 163.906 97.451 175.55 99.4278C193.03 102.394 203.621 81.1253 202.118 76.3619C202.118 76.3619 199.608 73.0268 195.483 72.0213C195.483 72.0213 195.439 68.697 199.026 70.2716C202.612 71.8462 204.048 70.8845 205.65 70.5083C208.468 69.8475 214.456 63.0773 216.687 62.2168C218.918 61.3563 218.221 63.2168 218.221 63.2168C218.221 63.2168 220.407 60.7572 221.913 61.9897L218.701 66.2333C218.701 66.2333 221.299 62.801 222.805 64.5246L216.085 72.3879L221.01 68.5219C221.01 68.5219 221.695 69.2771 220.408 70.615C219.121 71.9529 213.884 79.2539 208.872 79.2539C208.872 79.2539 211.572 119.529 181.415 121.165C155.505 122.57 144.953 101.669 144.953 101.669L146.557 72.6642Z" fill="white"/>
<path d="M178.972 121.533C166.811 121.533 158.339 116.528 153.271 112.172C147.416 107.142 144.711 101.857 144.684 101.804C144.661 101.758 144.65 101.704 144.653 101.652L146.256 72.6479C146.26 72.5603 146.304 72.4796 146.373 72.4249C146.443 72.3715 146.534 72.3524 146.62 72.3701C146.747 72.3975 149.77 73.0856 152.171 76.7915C152.616 77.4783 153.082 78.217 153.575 78.9954C158.198 86.3101 165.186 97.3635 175.599 99.131C185.226 100.764 192.092 94.7753 195.329 91.0598C200.344 85.3032 202.489 78.7423 201.846 76.5015C201.546 76.1253 199.137 73.2197 195.411 72.3127C195.278 72.2799 195.182 72.1622 195.181 72.024C195.181 71.9639 195.173 70.5357 196.18 69.8694C196.888 69.3988 197.885 69.4413 199.145 69.9953C202.032 71.2621 203.422 70.8462 204.765 70.4413C205.031 70.3619 205.304 70.2785 205.58 70.2142C207.089 69.8599 209.683 67.552 211.97 65.5165C213.891 63.8078 215.549 62.3318 216.578 61.935C217.441 61.6026 218.025 61.604 218.364 61.9419C218.504 62.08 218.575 62.2524 218.605 62.4275C219.423 61.7285 220.906 60.7763 222.102 61.7558C222.226 61.8584 222.248 62.0404 222.151 62.1703L220.753 64.0185C221.074 63.8584 221.407 63.7517 221.734 63.7408C222.248 63.7244 222.675 63.92 223.031 64.3277C223.129 64.4398 223.131 64.6067 223.032 64.7203L218.28 70.2812L220.823 68.2853C220.947 68.1882 221.125 68.2018 221.23 68.3195C221.266 68.3592 222.088 69.3003 220.623 70.8229C220.434 71.0199 220.148 71.3592 219.787 71.7887C217.719 74.2484 213.468 79.3045 209.185 79.5453C209.303 82.2375 209.768 101.637 199.68 113.028C195.082 118.219 188.943 121.057 181.428 121.465C180.594 121.51 179.773 121.532 178.97 121.532L178.972 121.533ZM145.259 101.603C145.596 102.238 148.275 107.091 153.683 111.733C159 116.297 168.122 121.583 181.398 120.866C188.745 120.468 194.745 117.697 199.23 112.633C209.868 100.625 208.586 79.4879 208.571 79.2744C208.565 79.191 208.594 79.1103 208.652 79.0487C208.709 78.9885 208.788 78.953 208.872 78.953C212.981 78.953 217.269 73.8531 219.33 71.4016C219.698 70.9638 219.99 70.6177 220.192 70.4071C220.83 69.745 220.92 69.2744 220.887 69.0021L216.271 72.626C216.151 72.7217 215.976 72.7094 215.869 72.5972C215.763 72.4851 215.757 72.3113 215.858 72.1937L222.393 64.5466C222.206 64.4015 221.996 64.3359 221.757 64.3427C220.706 64.3797 219.369 65.8516 218.942 66.4152C218.84 66.5479 218.653 66.5726 218.52 66.4741C218.388 66.3742 218.362 66.1854 218.462 66.0527L221.479 62.0664C220.218 61.4535 218.466 63.3961 218.447 63.418C218.351 63.526 218.191 63.5507 218.066 63.4754C217.942 63.4002 217.89 63.2483 217.94 63.1129C218.003 62.9419 218.092 62.5178 217.943 62.3714C217.888 62.3181 217.648 62.1717 216.797 62.5C215.869 62.8584 214.17 64.3687 212.373 65.9693C209.917 68.154 207.377 70.4153 205.72 70.8038C205.461 70.864 205.208 70.9406 204.94 71.0213C203.56 71.4358 201.995 71.9064 198.906 70.5507C197.846 70.0856 197.041 70.0268 196.515 70.3756C195.98 70.7299 195.838 71.4331 195.799 71.7942C199.835 72.879 202.258 76.0473 202.36 76.1841C202.381 76.2115 202.397 76.2416 202.407 76.2744C203.237 78.9078 200.721 85.7916 195.784 91.4592C192.464 95.2691 185.413 101.41 175.501 99.7288C164.822 97.9162 157.748 86.7259 153.067 79.3223C152.577 78.5467 152.111 77.8093 151.668 77.1239C149.87 74.3483 147.672 73.3578 146.837 73.0678L145.26 101.607L145.259 101.603Z" fill="black"/>
<path d="M212.587 69.2608C212.511 69.2608 212.436 69.2321 212.377 69.1746C212.258 69.0583 212.256 68.8682 212.373 68.7492L218.006 63.0063C218.122 62.8873 218.312 62.8859 218.431 63.0022C218.55 63.1185 218.552 63.3086 218.436 63.4277L212.802 69.1705C212.743 69.2307 212.665 69.2608 212.587 69.2608Z" fill="black"/>
<path d="M214.88 70.4222C214.803 70.4222 214.728 70.3934 214.669 70.336C214.55 70.2197 214.549 70.0295 214.665 69.9105L218.486 66.0227C218.602 65.9037 218.793 65.9023 218.912 66.0186C219.031 66.1348 219.032 66.325 218.916 66.444L215.095 70.3319C215.036 70.3921 214.958 70.4222 214.88 70.4222Z" fill="black"/>
<path d="M204.829 76.6753C204.788 76.6753 204.746 76.667 204.706 76.6479C204.554 76.5795 204.487 76.4017 204.556 76.2498C204.626 76.0939 206.307 72.4509 209.054 73.0117C211.472 73.507 213.203 72.8845 213.221 72.8791C213.377 72.8216 213.549 72.9009 213.607 73.0569C213.664 73.2128 213.586 73.3852 213.43 73.4427C213.353 73.4714 211.53 74.1335 208.932 73.6014C206.649 73.1349 205.118 76.4646 205.103 76.4988C205.052 76.6096 204.943 76.6753 204.828 76.6753H204.829Z" fill="black"/>
<path d="M84.7998 84.3608C84.7998 84.3608 137.863 69.4865 148.588 71.2759L152.339 96.2774L159.435 115.403C161.475 120.901 160.32 127.104 156.364 131.432C151.941 136.27 144.59 141.382 133.072 141.9C110.712 142.907 99.8355 148.417 98.6508 138.538C97.4647 128.657 96.0557 104.955 96.0557 104.955C92.4811 95.525 88.1309 84.6317 84.7998 84.3594V84.3608Z" fill="white"/>
<path d="M106.45 144.64C103.876 144.64 101.923 144.256 100.559 143.187C99.3306 142.226 98.6097 140.717 98.3525 138.576C97.2047 129.005 95.8299 106.202 95.7588 105.022C93.0884 97.9778 88.139 84.9366 84.7751 84.663C84.6301 84.6507 84.5138 84.5371 84.5001 84.3921C84.4864 84.2471 84.5781 84.1131 84.719 84.0734C86.8887 83.4646 137.971 69.2019 148.637 70.9803C148.766 71.0022 148.866 71.1034 148.885 71.232L152.631 96.2034L159.716 115.301C161.817 120.966 160.617 127.226 156.584 131.637C152.449 136.161 145.014 141.666 133.085 142.204C126.522 142.499 120.866 143.194 116.32 143.752C112.361 144.238 109.08 144.642 106.448 144.642L106.45 144.64ZM85.8134 84.3921C89.0556 86.2458 92.7765 95.4565 96.3374 104.849C96.3484 104.878 96.3552 104.908 96.3566 104.938C96.3703 105.175 97.7793 128.744 98.9503 138.502C99.1911 140.503 99.8204 141.841 100.931 142.713C103.492 144.72 108.567 144.097 116.249 143.153C120.805 142.594 126.476 141.897 133.06 141.601C144.784 141.072 152.083 135.669 156.142 131.23C160.023 126.986 161.177 120.962 159.153 115.509L152.057 96.3813C152.051 96.3621 152.045 96.3416 152.042 96.3211L148.324 71.5384C138.128 70.1294 92.9051 82.4345 85.8148 84.3908L85.8134 84.3921Z" fill="black"/>
<path d="M120.784 67.3373C122.699 67.6438 124.555 67.3291 125.498 66.4796C126.659 65.4331 126.562 63.9324 126.693 62.0815C126.748 61.3072 126.754 60.418 127.335 59.5055C127.643 59.0213 128.031 58.6587 128.421 58.3838C128.9 58.0472 129.044 57.4002 128.769 56.8831L128.553 56.5876C126.849 54.2661 126.052 50.1265 126.327 45.8201L125.135 43.6217C121.832 43.1347 119.202 43.2934 118.904 43.8693C118.795 44.0813 118.598 44.251 118.81 45.0991C119.83 49.199 116.034 49.6477 112.762 49.6204C109.49 49.593 111.929 55.0718 111.929 55.0718C111.929 55.0718 109.424 53.0445 107.797 55.7025C106.632 57.6067 110.204 59.4317 112.323 60.3127C112.323 60.3127 112.349 73.6342 109.651 75.4126L102.161 80.1801C102.161 80.1801 118.55 84.1747 129.84 74.5987C129.84 74.5987 124.821 74.8654 122.614 73.1582C120.406 71.4509 121.009 67.7682 120.785 67.336L120.784 67.3373Z" fill="white"/>
<path d="M110.256 81.2868C105.537 81.2868 102.164 80.4934 102.09 80.4756C101.972 80.4469 101.883 80.3511 101.864 80.2321C101.845 80.1131 101.898 79.9941 102 79.9298L109.489 75.1623C111.55 73.8039 112.012 64.3195 112.022 60.5151C110.111 59.7039 107.826 58.459 107.357 57.013C107.193 56.5082 107.254 56.0158 107.54 55.5479C108.057 54.7025 108.717 54.2059 109.499 54.0705C110.193 53.9501 110.849 54.1443 111.331 54.3673C110.931 53.2264 110.391 51.1949 111.113 50.0923C111.451 49.5752 112.011 49.3084 112.764 49.3235C114.76 49.3454 117.179 49.1935 118.189 47.9131C118.706 47.2578 118.812 46.3618 118.517 45.1757C118.319 44.3782 118.443 44.069 118.6 43.7981C118.613 43.7763 118.625 43.7557 118.636 43.7339C119.089 42.8583 122.345 42.9103 125.178 43.3275C125.272 43.3412 125.353 43.3987 125.398 43.4821L126.589 45.6819C126.617 45.7311 126.629 45.7886 126.625 45.8447C126.349 50.1648 127.18 54.2155 128.793 56.4138L129.009 56.7093C129.018 56.7216 129.026 56.734 129.033 56.7463C129.38 57.4015 129.191 58.2128 128.592 58.6341C128.176 58.9269 127.838 59.2757 127.587 59.6711C127.101 60.4344 127.053 61.1758 127.007 61.8913L126.992 62.1061C126.974 62.3646 126.96 62.6164 126.946 62.8612C126.862 64.3975 126.789 65.7245 125.697 66.7067C124.76 67.5507 123.038 67.9187 121.138 67.693C121.143 67.8134 121.148 67.957 121.152 68.1321C121.179 69.3838 121.23 71.7149 122.796 72.9256C124.889 74.5453 129.773 74.3059 129.822 74.3045C129.948 74.2963 130.07 74.3743 130.118 74.4933C130.165 74.6137 130.131 74.7505 130.033 74.834C123.826 80.098 116.033 81.2896 110.256 81.2896V81.2868ZM102.948 80.0378C106.138 80.6398 119.312 82.5221 128.975 74.9188C127.408 74.9133 124.149 74.73 122.428 73.3989C120.636 72.0131 120.581 69.496 120.551 68.1431C120.544 67.8626 120.537 67.5439 120.511 67.4659C120.459 67.3647 120.47 67.2484 120.537 67.1567C120.604 67.0651 120.718 67.0241 120.832 67.0418C122.685 67.3387 124.438 67.0309 125.297 66.258C126.202 65.4426 126.267 64.2881 126.347 62.827C126.361 62.5794 126.375 62.3236 126.394 62.0609L126.407 61.8503C126.457 61.0951 126.511 60.2401 127.081 59.3455C127.375 58.8831 127.767 58.4782 128.247 58.1403C128.594 57.8968 128.706 57.4289 128.513 57.0445L128.31 56.7682C126.603 54.4398 125.749 50.3796 126.022 45.8912L124.944 43.9007C121.447 43.4028 119.361 43.6983 119.172 44.0115C119.157 44.0416 119.139 44.0704 119.123 44.1005C119.037 44.2496 118.946 44.4028 119.102 45.0307C119.44 46.3905 119.293 47.4863 118.662 48.2866C117.491 49.7736 114.892 49.9418 112.76 49.9268C112.212 49.9145 111.84 50.0855 111.617 50.4247C110.918 51.4904 111.804 54.0568 112.204 54.9556C112.26 55.0828 112.223 55.2305 112.112 55.3153C112.002 55.3988 111.848 55.3988 111.74 55.3112C111.729 55.303 110.688 54.4781 109.599 54.6669C108.997 54.7722 108.477 55.1744 108.054 55.8653C107.862 56.1799 107.82 56.4959 107.93 56.8311C108.253 57.8256 109.855 58.9665 112.439 60.0418C112.551 60.0883 112.624 60.1977 112.624 60.3181C112.624 60.868 112.618 73.823 109.816 75.6698L102.949 80.0419L102.948 80.0378Z" fill="black"/>
<path d="M120.784 67.6384C120.774 67.6384 120.763 67.6384 120.754 67.637C117.035 67.2581 114.498 62.8586 114.392 62.6712C114.31 62.5275 114.361 62.3429 114.506 62.2608C114.651 62.1787 114.834 62.2293 114.916 62.373C114.941 62.4167 117.409 66.6904 120.815 67.0365C120.981 67.0529 121.101 67.2006 121.083 67.3662C121.068 67.5207 120.937 67.637 120.785 67.637L120.784 67.6384Z" fill="black"/>
<path d="M146.004 108.75C143.635 106.974 135.893 101.807 133.156 103.418C131.334 104.49 129.539 106.148 128.082 110.847L97.0995 121.773L97.1857 112.346C97.2267 107.843 96.213 103.391 94.2267 99.3486L88.44 87.5784C84.8272 89.9628 82.0022 93.3855 80.4304 97.4184C74.0651 113.754 75.8613 143.162 81.979 144.705C98.4196 148.851 130.201 115.873 130.201 115.873C130.201 115.873 138.849 115.832 140.543 115.661C147.565 114.953 147.59 109.938 146.001 108.748L146.004 108.75Z" fill="white"/>
<path d="M85.0856 145.371C83.957 145.371 82.8968 145.246 81.9064 144.996C80.9091 144.744 80.0048 143.843 79.2182 142.317C75.0882 134.308 74.7982 111.044 80.1512 97.3088C81.7367 93.2404 84.5452 89.7889 88.2758 87.3265C88.3483 87.2787 88.4372 87.2636 88.5206 87.2869C88.6041 87.3101 88.6738 87.3662 88.7122 87.4442L94.4988 99.2145C96.4961 103.277 97.5303 107.819 97.4892 112.347L97.4072 121.346L127.842 110.613C129.346 105.849 131.212 104.213 133.007 103.158C136.351 101.193 145.788 108.209 146.187 108.509C147.033 109.142 147.379 110.559 147.012 111.879C146.717 112.941 145.498 115.466 140.579 115.962C138.981 116.123 131.448 116.168 130.334 116.174C129.429 117.1 121.785 124.864 112.443 132.082C101.008 140.917 91.8298 145.371 85.0883 145.371H85.0856ZM88.3223 88.0201C84.838 90.3991 82.2101 93.6795 80.7107 97.5277C78.2565 103.827 76.8106 112.781 76.7435 122.092C76.682 130.68 77.8352 138.324 79.7518 142.041C80.4563 143.406 81.2306 144.205 82.0527 144.412C98.1377 148.471 129.669 115.992 129.985 115.663C130.041 115.604 130.119 115.572 130.199 115.572C130.286 115.572 138.852 115.529 140.513 115.361C145.063 114.903 146.165 112.659 146.427 111.717C146.767 110.495 146.368 109.399 145.821 108.989C143.185 107.013 135.799 102.209 133.305 103.676C131.596 104.68 129.816 106.254 128.365 110.934C128.336 111.024 128.268 111.097 128.178 111.128L97.1951 122.055C97.1021 122.087 96.9995 122.072 96.9202 122.015C96.8408 121.957 96.7929 121.866 96.7943 121.767L96.8805 112.339C96.9215 107.904 95.9092 103.457 93.953 99.4771L88.3182 88.016L88.3223 88.0201Z" fill="black"/>
<path d="M146.855 111.135C146.822 111.135 146.789 111.13 146.758 111.119L135.962 107.417C135.804 107.362 135.721 107.193 135.774 107.035C135.828 106.878 135.999 106.795 136.156 106.848L146.952 110.55C147.109 110.604 147.193 110.774 147.14 110.931C147.097 111.056 146.979 111.135 146.855 111.135Z" fill="black"/>
<path d="M146.243 113.161C146.215 113.161 146.186 113.157 146.157 113.149L135.624 110.016C135.465 109.968 135.373 109.802 135.421 109.641C135.469 109.483 135.633 109.392 135.796 109.439L146.33 112.572C146.488 112.62 146.58 112.786 146.532 112.947C146.492 113.078 146.373 113.161 146.243 113.161Z" fill="black"/>
<path d="M144.235 114.948C144.208 114.948 144.18 114.944 144.154 114.937C140.715 113.979 135.461 112.541 135.082 112.502C134.915 112.502 134.789 112.368 134.789 112.201C134.789 112.034 134.931 111.9 135.097 111.9C135.45 111.9 141.661 113.618 144.316 114.357C144.476 114.402 144.569 114.567 144.525 114.728C144.488 114.86 144.366 114.948 144.235 114.948Z" fill="black"/>
<path d="M88.5781 126.849C88.4728 126.849 88.3702 126.795 88.3155 126.696C88.2347 126.551 88.2854 126.368 88.4304 126.287L96.953 121.511C97.098 121.431 97.2813 121.481 97.362 121.626C97.4427 121.771 97.3921 121.955 97.2471 122.035L88.7245 126.811C88.678 126.837 88.6274 126.849 88.5781 126.849Z" fill="black"/>
<path d="M152.495 130.954C152.001 129.763 150.841 128.979 149.553 128.979C137.536 128.984 125.336 131.986 112.941 138.159C111.881 138.687 111.004 139.521 110.431 140.558C108.16 144.662 102.091 156.095 98.9874 166.434C98.1324 169.281 94.5482 180.375 92.5195 187.15C91.8245 189.47 93.5578 191.802 95.9791 191.809C107.667 191.838 160.888 192.102 169.593 190.85C170.724 190.687 171.48 189.591 171.246 188.472C166.766 166.999 155.471 138.137 152.495 130.954Z" fill="black"/>
<path d="M226.235 204.246H45.0253C43.7244 204.246 42.6655 203.187 42.6655 201.886V201.321C42.6655 200.02 43.7244 198.961 45.0253 198.961H226.235C227.536 198.961 228.594 200.02 228.594 201.321V201.886C228.594 203.187 227.536 204.246 226.235 204.246ZM45.0253 199.563C44.0554 199.563 43.2674 200.352 43.2674 201.321V201.886C43.2674 202.856 44.0568 203.644 45.0253 203.644H226.235C227.205 203.644 227.993 202.854 227.993 201.886V201.321C227.993 200.351 227.203 199.563 226.235 199.563H45.0253Z" fill="black"/>
<path d="M131.288 202.12C131.613 200.118 130.253 198.231 128.251 197.906C126.249 197.581 124.362 198.941 124.037 200.943C123.712 202.946 125.072 204.833 127.074 205.158C129.076 205.483 130.963 204.123 131.288 202.12Z" fill="white"/>
<path d="M127.657 205.493C125.465 205.493 123.684 203.71 123.684 201.52C123.684 199.33 125.467 197.548 127.657 197.548C129.847 197.548 131.629 199.33 131.629 201.52C131.629 203.71 129.847 205.493 127.657 205.493ZM127.657 198.148C125.798 198.148 124.285 199.661 124.285 201.52C124.285 203.379 125.798 204.892 127.657 204.892C129.516 204.892 131.029 203.379 131.029 201.52C131.029 199.661 129.516 198.148 127.657 198.148Z" fill="black"/>
<path d="M182.842 22.7693H140.668C138.279 22.7693 136.453 24.7118 136.453 27.1004V39.3057C136.453 41.6928 138.279 43.6217 140.668 43.6217H142.193V51.7723L147.743 43.6217H182.843C185.23 43.6217 187.275 41.6928 187.275 39.3057V27.1004C187.275 24.7118 185.23 22.7693 182.843 22.7693H182.842Z" fill="white"/>
<path d="M142.192 52.0732C142.163 52.0732 142.133 52.0691 142.103 52.0596C141.977 52.0199 141.891 51.9036 141.891 51.7723V43.9227H140.666C138.134 43.9227 136.152 41.894 136.152 39.3057V27.1004C136.152 24.5039 138.135 22.4697 140.666 22.4697H182.842C185.408 22.4697 187.575 24.5901 187.575 27.1004V39.3057C187.575 41.8091 185.407 43.9227 182.842 43.9227H147.9L142.441 51.9419C142.383 52.0254 142.29 52.0732 142.192 52.0732ZM140.666 23.0703C138.472 23.0703 136.752 24.8405 136.752 27.1004V39.3057C136.752 41.5574 138.472 43.3221 140.666 43.3221H142.192C142.358 43.3221 142.493 43.4562 142.493 43.6231V50.7969L147.493 43.4535C147.549 43.3714 147.642 43.3221 147.742 43.3221H182.842C185.081 43.3221 186.973 41.4836 186.973 39.3057V27.1004C186.973 24.9157 185.081 23.0703 182.842 23.0703H140.666Z" fill="black"/>
<path d="M165.467 31.4739L178.718 31.4739C179.49 31.4739 180.115 30.8485 180.115 30.0772V29.8282C180.115 29.0568 179.49 28.4314 178.718 28.4314H165.467C164.695 28.4314 164.07 29.0568 164.07 29.8282V30.0772C164.07 30.8485 164.695 31.4739 165.467 31.4739Z" fill="black"/>
<path d="M151.199 31.4739H158.401C159.173 31.4739 159.798 30.8485 159.798 30.0772V29.8282C159.798 29.0568 159.173 28.4314 158.401 28.4314H151.199C150.427 28.4314 149.802 29.0568 149.802 29.8282V30.0772C149.802 30.8485 150.427 31.4739 151.199 31.4739Z" fill="black"/>
<path d="M145.008 38.0457L178.719 38.0457C179.49 38.0457 180.115 37.4203 180.115 36.6489V36.4C180.115 35.6286 179.49 35.0032 178.719 35.0032L145.008 35.0032C144.237 35.0032 143.612 35.6286 143.612 36.4V36.6489C143.612 37.4203 144.237 38.0457 145.008 38.0457Z" fill="black"/>
<path d="M219.909 51.9802C219.752 51.7517 219.752 51.4562 219.909 51.2264C220.126 50.9104 220.245 50.5698 220.245 50.2141C220.245 48.5629 217.687 47.2236 214.531 47.2236C211.375 47.2236 208.817 48.5629 208.817 50.2141C208.817 50.5698 208.936 50.9104 209.154 51.2264C209.311 51.4549 209.311 51.7503 209.154 51.9802C208.936 52.2962 208.817 52.6368 208.817 52.9925C208.817 53.7764 209.393 54.4891 210.336 55.0226C210.315 55.1115 210.303 55.2018 210.303 55.2935C210.303 56.5151 212.196 57.5069 214.531 57.5069C216.866 57.5069 218.76 56.5165 218.76 55.2935C218.76 55.2018 218.747 55.1115 218.727 55.0226C219.669 54.4891 220.245 53.7764 220.245 52.9925C220.245 52.6368 220.126 52.2962 219.909 51.9802Z" fill="black"/>
<path d="M230.04 27.2878C230.04 18.8185 222.991 11.5928 214.522 11.5928C206.069 11.5928 199.095 18.6229 199.039 27.0758C199.01 31.3809 201.087 35.385 203.917 38.1867C205.96 40.2072 207.448 42.7202 208.17 45.5L208.206 45.6341C208.908 48.3331 211.344 50.2169 214.133 50.2169H215.277C218.066 50.2169 220.503 48.3331 221.205 45.6341L221.225 45.5534C221.943 42.7927 223.371 40.2565 225.414 38.2647C228.269 35.4794 230.04 31.5916 230.04 27.2892V27.2878Z" fill="white"/>
<path d="M215.277 50.5178H214.133C211.209 50.5178 208.652 48.541 207.916 45.7093L207.88 45.5752C207.182 42.8939 205.739 40.4124 203.706 38.3987C200.522 35.2468 198.712 31.1195 198.738 27.073C198.797 18.3711 205.876 11.2917 214.522 11.2917C223.168 11.2917 230.341 18.6174 230.341 27.2878C230.341 31.5368 228.666 35.5108 225.623 38.4794C223.652 40.4028 222.232 42.8748 221.515 45.6285L221.495 45.7093C220.759 48.5397 218.202 50.5178 215.277 50.5178ZM214.522 11.8937C206.206 11.8937 199.396 18.7049 199.34 27.0785C199.314 30.9636 201.059 34.9349 204.129 37.9732C206.24 40.0622 207.738 42.6395 208.463 45.4247L208.499 45.5588C209.166 48.1251 211.483 49.9172 214.135 49.9172H215.278C217.93 49.9172 220.247 48.1251 220.914 45.5588L220.935 45.4781C221.679 42.6176 223.155 40.0485 225.205 38.0498C228.129 35.1962 229.741 31.374 229.741 27.2891C229.741 18.9443 222.772 11.895 214.523 11.895L214.522 11.8937Z" fill="black"/>
<path d="M215.392 48.322C215.225 48.322 215.092 48.1866 215.092 48.0197C215.125 39.7666 219.945 30.4491 220.91 28.6652C221.485 27.6037 221.705 26.735 221.582 26.0086C221.399 24.932 220.849 24.2398 219.947 23.9511C219.302 23.7446 218.297 23.724 217.442 24.2097C218.534 25.3246 219.266 27.1591 218.81 28.7514C218.631 29.378 218.128 29.8171 217.464 29.9279C216.69 30.0565 215.897 29.7186 215.44 29.0661C215.047 28.5052 214.577 27.2316 215.839 25.0058C216.025 24.6789 216.243 24.4039 216.481 24.1768C216.447 24.1536 216.411 24.1303 216.377 24.1084C215.734 23.7035 214.676 23.408 213.634 23.7965C213.337 23.9073 213.059 24.0674 212.802 24.2753C213.969 25.092 214.552 27.248 214.307 28.4614C214.122 29.378 213.587 30.0319 212.841 30.2576C212.203 30.4491 211.514 30.274 211.042 29.7993C210.386 29.1427 210.23 28.0428 210.615 26.7829C210.925 25.7651 211.33 25.0223 211.761 24.4819C210.021 24.0004 208.806 24.8335 208.477 25.6474C208.091 26.5996 208.232 27.7336 208.843 28.6078C210.256 30.6283 213.563 36.5258 213.724 47.6421C213.727 47.809 213.594 47.9445 213.427 47.9472H213.423C213.259 47.9472 213.125 47.8159 213.122 47.6504C212.962 36.7009 209.731 30.9266 208.349 28.9525C207.611 27.8978 207.449 26.5777 207.918 25.4217C208.433 24.1522 210.165 23.2972 212.213 23.9922C212.633 23.6023 213.055 23.3697 213.425 23.2329C214.671 22.7692 215.934 23.118 216.698 23.6009C216.791 23.6597 216.883 23.7227 216.973 23.7924C218.031 23.1084 219.319 23.1194 220.133 23.3807C221.544 23.8335 222.024 25.0058 222.177 25.9101C222.325 26.7856 222.092 27.7528 221.441 28.9539C220.488 30.7159 215.728 39.9157 215.696 48.0238C215.696 48.1893 215.56 48.3234 215.395 48.3234L215.392 48.322ZM212.355 24.7035C211.867 25.2589 211.471 26.0168 211.185 26.9566C210.868 27.9977 210.969 28.8787 211.463 29.3739C211.783 29.6953 212.232 29.8103 212.663 29.6803C213.191 29.5216 213.574 29.0332 213.713 28.341C213.923 27.3027 213.373 25.2822 212.355 24.7022V24.7035ZM216.949 24.564C216.728 24.7623 216.529 25.0058 216.362 25.3027C215.263 27.2412 215.62 28.2767 215.932 28.7227C216.256 29.1865 216.817 29.4286 217.365 29.3356C217.8 29.2631 218.116 28.9895 218.23 28.5859C218.635 27.17 217.946 25.5271 216.949 24.564Z" fill="black"/>
<path d="M221.634 37.2126C221.534 37.2126 221.437 37.1634 221.38 37.0717C221.291 36.9308 221.333 36.7448 221.474 36.6572C224.214 34.9335 226.187 32.1346 226.886 28.9773C226.921 28.8145 227.083 28.7132 227.244 28.7488C227.407 28.7844 227.508 28.9458 227.473 29.1072C226.739 32.4205 224.67 35.3576 221.793 37.1661C221.743 37.1976 221.687 37.2126 221.633 37.2126H221.634Z" fill="black"/>
<path d="M204.943 35.4356C204.86 35.4356 204.777 35.4014 204.719 35.3344C202.639 32.9964 201.496 29.9841 201.496 26.8528C201.496 21.9676 204.214 17.5832 208.59 15.4108C208.739 15.3356 208.92 15.3971 208.994 15.5462C209.067 15.6954 209.007 15.8759 208.858 15.9498C204.689 18.021 202.098 22.1988 202.098 26.8528C202.098 29.8364 203.188 32.7064 205.169 34.9349C205.279 35.0594 205.269 35.2495 205.144 35.359C205.087 35.4096 205.015 35.4356 204.944 35.4356H204.943Z" fill="black"/>
<path d="M215.507 52.1156C215.363 52.1156 215.236 52.0117 215.211 51.8653C215.182 51.7012 215.293 51.5466 215.457 51.5178C215.976 51.4289 216.481 51.3154 216.958 51.1813C217.117 51.1348 217.284 51.2292 217.329 51.3892C217.374 51.5493 217.281 51.7148 217.121 51.76C216.623 51.9009 216.096 52.0185 215.559 52.1116C215.541 52.1143 215.524 52.1156 215.508 52.1156H215.507Z" fill="white"/>
<path d="M213.098 55.0541C212.932 55.0541 212.798 54.9214 212.797 54.7559C212.795 54.589 212.928 54.4536 213.095 54.4522C214.27 54.4413 215.994 54.2785 217.534 53.5589C217.686 53.4891 217.864 53.5534 217.933 53.7039C218.003 53.8544 217.939 54.0336 217.788 54.1034C216.151 54.8694 214.334 55.0432 213.1 55.0541H213.098Z" fill="white"/>
<path d="M214.607 8.20286H214.6C214.433 8.19876 214.302 8.06196 214.306 7.89643L214.447 1.12346C214.451 0.959305 214.583 0.829346 214.748 0.829346H214.754C214.921 0.83345 215.053 0.970248 215.049 1.13578L214.908 7.90875C214.904 8.07291 214.771 8.20286 214.607 8.20286Z" fill="black"/>
<path d="M194.975 22.0019L190.65 21.9991C190.485 21.9991 190.349 21.8637 190.349 21.6982C190.349 21.5327 190.485 21.3972 190.65 21.3972L194.975 21.4C195.14 21.4 195.276 21.5354 195.276 21.7009C195.276 21.8664 195.14 22.0019 194.975 22.0019Z" fill="black"/>
<path d="M198.966 12.9581C198.919 12.9581 198.869 12.9457 198.823 12.9211L193.944 10.2781C193.798 10.1988 193.745 10.0169 193.824 9.87048C193.903 9.72411 194.085 9.67076 194.232 9.7501L199.11 12.3931C199.256 12.4724 199.31 12.6544 199.23 12.8007C199.176 12.9006 199.073 12.9581 198.966 12.9581Z" fill="black"/>
<path d="M234.084 22.0019C233.919 22.0019 233.783 21.8678 233.783 21.7009C233.783 21.534 233.918 21.4 234.084 21.4L238.409 21.3972C238.574 21.3972 238.71 21.5313 238.71 21.6982C238.71 21.8651 238.576 21.9991 238.409 21.9991L234.084 22.0019Z" fill="black"/>
<path d="M230.094 12.958C229.987 12.958 229.883 12.9006 229.83 12.8007C229.751 12.6543 229.805 12.4724 229.95 12.393L234.827 9.75007C234.974 9.67072 235.156 9.72544 235.235 9.87045C235.314 10.0168 235.259 10.1988 235.114 10.2781L230.238 12.9211C230.192 12.9457 230.143 12.958 230.094 12.958Z" fill="black"/>
<path d="M14.8239 162.367C5.25068 164.42 0.613157 182.108 0.410693 193.559C0.0659575 213.042 12.2603 231.715 29.0894 240.689C51.4494 252.614 84.7835 248.907 95.763 229.53C102.314 217.968 101.416 199.928 92.302 192.68C83.1651 185.415 73.7861 195.367 56.3209 190.91C32.1866 184.751 26.7953 159.799 14.8239 162.367Z" fill="white"/>
<path d="M57.5001 247.822C47.4152 247.822 37.37 245.447 28.9472 240.954C11.3629 231.577 -0.22676 212.527 0.1084 193.553C0.317704 181.742 5.00037 164.167 14.7597 162.073C20.5025 160.837 24.7091 165.673 30.0361 171.791C36.0704 178.723 43.5793 187.348 56.3948 190.619C64.7204 192.743 71.0898 191.587 76.7082 190.568C82.8122 189.46 87.6344 188.586 92.4881 192.445C96.8069 195.879 99.6195 202.081 100.206 209.463C100.774 216.616 99.2501 223.984 96.0243 229.678C90.8684 238.778 80.1939 245.145 66.7382 247.145C63.6862 247.599 60.5918 247.822 57.5015 247.822H57.5001ZM14.8855 162.661C5.55167 164.664 0.908683 182.285 0.710323 193.564C0.379267 212.318 11.8404 231.15 29.2304 240.424C40.1224 246.232 53.7614 248.467 66.6493 246.551C79.9203 244.578 90.4361 238.321 95.5004 229.382C98.6687 223.791 100.165 216.548 99.6058 209.511C99.0326 202.295 96.3021 196.245 92.1132 192.916C87.473 189.225 82.7698 190.079 76.8149 191.159C71.1363 192.189 64.6985 193.358 56.2456 191.2C43.2483 187.883 35.6709 179.18 29.582 172.185C24.3863 166.216 20.2837 161.501 14.8855 162.66V162.661Z" fill="black"/>
<path d="M69.6438 247.37C69.6438 247.37 78.2951 250.924 84.4593 250.871C85.4989 250.861 86.172 249.771 85.7342 248.828C85.4812 248.284 85.0981 247.596 84.5263 246.737C82.3867 243.523 73.2225 238.311 73.2225 238.311L71.7451 238.951C71.2266 239.176 71.0159 239.8 71.2909 240.294L71.663 240.96L69.2074 240.957C68.6479 240.957 68.2006 241.423 68.2307 241.982C68.2909 243.117 68.5686 245.09 69.6425 247.369L69.6438 247.37Z" fill="white"/>
<path d="M84.3225 251.172C78.1774 251.172 69.6165 247.683 69.5289 247.648C69.4592 247.619 69.4031 247.566 69.3716 247.499C68.3005 245.227 67.9968 243.254 67.9311 241.999C67.912 241.648 68.0365 241.313 68.2786 241.057C68.5194 240.804 68.8573 240.659 69.2061 240.659H71.15L71.0283 240.443C70.8559 240.133 70.8217 239.764 70.9352 239.428C71.0488 239.092 71.3005 238.819 71.6247 238.678L73.1022 238.038C73.1883 237.999 73.2882 238.005 73.3703 238.053C73.7465 238.268 82.6207 243.339 84.7753 246.574C85.3034 247.366 85.7165 248.084 86.0051 248.705C86.2555 249.246 86.2158 249.868 85.8984 250.373C85.5838 250.87 85.0462 251.171 84.4607 251.175C84.4141 251.175 84.3676 251.175 84.3211 251.175L84.3225 251.172ZM69.8655 247.135C70.8723 247.537 78.6672 250.57 84.3198 250.57C84.3649 250.57 84.41 250.57 84.4552 250.57C84.841 250.567 85.1816 250.377 85.3895 250.047C85.5975 249.718 85.6248 249.309 85.4607 248.954C85.1843 248.361 84.7849 247.67 84.2746 246.902C82.3348 243.99 74.3238 239.294 73.202 238.645L71.8641 239.225C71.6918 239.3 71.5645 239.439 71.5043 239.616C71.4441 239.794 71.4619 239.982 71.5536 240.144L71.9257 240.811C71.9777 240.904 71.9763 241.017 71.9229 241.11C71.8682 241.202 71.7697 241.259 71.663 241.259L69.2075 241.257C69.02 241.257 68.8449 241.332 68.715 241.467C68.5864 241.603 68.5221 241.779 68.5317 241.965C68.5946 243.147 68.8764 244.995 69.8655 247.134V247.135Z" fill="black"/>
<path d="M84.7712 249.559C84.7712 249.559 84.7576 249.559 84.7507 249.559C78.0243 249.11 70.1008 246.124 70.0215 246.094C69.8669 246.035 69.7889 245.861 69.8477 245.705C69.9066 245.55 70.0817 245.473 70.2362 245.532C70.3142 245.562 78.1556 248.517 84.7918 248.959C84.9573 248.97 85.0832 249.113 85.0722 249.279C85.0613 249.437 84.9299 249.559 84.7726 249.559H84.7712Z" fill="black"/>
<path d="M78.9311 245.979C78.8791 245.979 78.8272 245.965 78.7793 245.938C78.6356 245.853 78.5878 245.67 78.6726 245.526L79.9968 243.274C80.0802 243.131 80.2649 243.083 80.4086 243.168C80.5522 243.253 80.6001 243.436 80.5153 243.579L79.191 245.831C79.135 245.927 79.0351 245.979 78.9311 245.979Z" fill="black"/>
<path d="M75.9558 245.065C75.9038 245.065 75.8518 245.052 75.8039 245.024C75.6603 244.939 75.6124 244.756 75.6972 244.612L77.3621 241.783C77.4455 241.64 77.6302 241.592 77.7739 241.677C77.9175 241.762 77.9654 241.945 77.8806 242.088L76.2157 244.918C76.1596 245.013 76.0597 245.065 75.9558 245.065Z" fill="black"/>
<path d="M42.5464 191.846C42.8118 191.567 61.7189 183.398 69.4468 181.661C77.1746 179.924 80.0542 179.907 82.6849 184.325C85.3142 188.742 70.0172 212.842 70.0172 212.842L37.4739 204.359L42.5478 191.847L42.5464 191.846Z" fill="black"/>
<path d="M60.8612 201.306C60.8202 201.306 60.7778 201.297 60.7381 201.28C60.5863 201.211 60.5192 201.033 60.5863 200.881C64.2334 192.74 70.2567 186.922 70.3169 186.864C70.4372 186.749 70.6274 186.753 70.7423 186.873C70.8572 186.994 70.8531 187.184 70.7327 187.299C70.6739 187.356 64.7327 193.098 61.1348 201.128C61.0842 201.24 60.9748 201.306 60.8599 201.306H60.8612Z" fill="white"/>
<path d="M27.0771 202.641C27.0771 202.641 27.0772 207.251 31.4411 211.566C36.909 216.972 54.5288 213.252 54.5288 213.252C54.5288 213.252 56.34 216.221 57.5247 224.152C58.708 232.084 60.0295 242.763 61.9899 245.369L79.0584 241.683C79.0584 241.683 73.3976 207.705 69.4646 203.084C65.533 198.463 36.9226 197.738 36.9226 197.738L27.0771 202.642V202.641Z" fill="black"/>
<path d="M71.4385 207.551C71.3141 207.551 71.1978 207.473 71.154 207.348C70.4454 205.31 69.7997 203.939 69.2347 203.277C67.169 200.849 53.6723 199.081 41.7297 198.236C41.5642 198.225 41.4397 198.08 41.4506 197.914C41.4616 197.749 41.6038 197.626 41.7721 197.635C49.2756 198.166 67.0158 199.741 69.6916 202.886C70.3127 203.616 70.9762 205.01 71.7204 207.15C71.7751 207.307 71.6916 207.478 71.5357 207.533C71.5028 207.544 71.47 207.549 71.4372 207.549L71.4385 207.551Z" fill="white"/>
<path d="M48.7175 186.665C48.8023 186.394 57.5548 173.067 57.5548 173.067L59.6656 174.609L51.6669 187.08L48.7175 186.664V186.665Z" fill="black"/>
<path d="M18.5819 200.95C18.5819 200.95 15.5189 196.67 16.7734 187.081C18.0278 177.493 21.0963 172.516 24.3056 171.378C27.5163 170.241 40.7202 172.318 41.7517 188.427L18.5819 200.95Z" fill="white"/>
<path d="M18.5818 201.251C18.4874 201.251 18.3957 201.207 18.3369 201.125C18.2097 200.946 15.2192 196.637 16.475 187.042C17.6269 178.24 20.4436 172.427 24.2056 171.095C25.9512 170.476 30.378 170.78 34.3425 173.397C37.5573 175.518 41.504 179.845 42.0525 188.41C42.0594 188.527 41.9992 188.638 41.8952 188.693L18.7254 201.215C18.6803 201.24 18.631 201.251 18.5831 201.251H18.5818ZM26.2357 171.414C25.4779 171.414 24.8486 171.505 24.4067 171.661C20.9183 172.896 18.1768 178.675 17.0715 187.12C16.0058 195.263 18.1125 199.559 18.6871 200.551L41.4383 188.255C40.861 180.065 37.0867 175.929 34.0101 173.899C31.2453 172.074 28.274 171.415 26.2357 171.415V171.414Z" fill="black"/>
<path d="M27.8089 194.326C27.6529 194.326 27.5202 194.206 27.5093 194.047L26.8731 185.055C26.8608 184.89 26.9867 184.746 27.1522 184.734C27.3191 184.717 27.4614 184.847 27.4737 185.013L28.1098 194.005C28.1221 194.17 27.9963 194.314 27.8307 194.326C27.8239 194.326 27.8157 194.326 27.8089 194.326Z" fill="black"/>
<path d="M17.4668 198.485C17.4668 198.485 18.579 206.537 29.8335 203.842C41.0881 201.147 46.9554 190.685 46.9554 190.685C46.9554 190.685 53.5081 189.284 53.2851 185.032C53.2851 185.032 51.0922 185.62 49.2263 185.032C47.3617 184.444 45.3425 185.046 44.5655 185.773C39.244 190.764 22.2466 192.261 17.4668 198.484V198.485Z" fill="white"/>
<path d="M25.5817 204.697C23.4559 204.697 21.6679 204.207 20.2356 203.229C17.5967 201.427 17.185 198.644 17.1685 198.526C17.1576 198.447 17.1795 198.366 17.2274 198.302C19.8868 194.841 26.1399 192.843 32.1864 190.912C37.2248 189.303 41.9841 187.783 44.3603 185.555C45.27 184.701 47.4246 184.15 49.3165 184.746C51.0772 185.301 53.1852 184.747 53.2071 184.742C53.2947 184.719 53.3877 184.735 53.4616 184.79C53.5354 184.843 53.5806 184.927 53.5847 185.017C53.8022 189.182 48.1182 190.717 47.1483 190.949C46.4519 192.115 40.5107 201.593 29.9032 204.133C28.3383 204.508 26.895 204.696 25.5817 204.696V204.697ZM17.7869 198.564C17.8963 199.099 18.4627 201.295 20.5844 202.739C22.7541 204.217 25.843 204.489 29.7637 203.551C40.7542 200.919 46.6353 190.642 46.6927 190.54C46.7351 190.464 46.8076 190.411 46.8924 190.393C46.954 190.379 52.8104 189.08 52.9855 185.411C52.2591 185.556 50.6148 185.788 49.136 185.322C47.3562 184.761 45.4574 185.353 44.772 185.996C42.2973 188.317 37.4751 189.857 32.3698 191.488C26.4737 193.371 20.3792 195.317 17.7869 198.567V198.564Z" fill="black"/>
<path d="M49.2715 187.151C49.0896 187.151 48.9008 187.147 48.7052 187.139C48.5396 187.132 48.4097 186.992 48.4165 186.827C48.4234 186.661 48.5519 186.53 48.7298 186.538C51.9665 186.668 53.0198 185.628 53.0294 185.619C53.1457 185.5 53.3358 185.498 53.4549 185.613C53.5739 185.73 53.5766 185.92 53.4603 186.039C53.4138 186.087 52.3386 187.151 49.2715 187.151Z" fill="black"/>
<path d="M48.9337 188.709C48.8611 188.709 48.7873 188.709 48.712 188.708C48.5465 188.705 48.4138 188.567 48.4165 188.401C48.4193 188.235 48.5616 188.103 48.723 188.106C51.4781 188.169 52.3947 187.192 52.4043 187.183C52.5151 187.061 52.7052 187.05 52.8283 187.159C52.9515 187.269 52.9638 187.456 52.8557 187.579C52.8147 187.627 51.8352 188.708 48.935 188.708L48.9337 188.709Z" fill="black"/>
<path d="M29.6038 164.999C29.5286 165.136 26.3384 170.587 26.3384 170.587L24.1387 172.065C24.9499 172.682 26.3836 173.609 28.389 174.14C30.4342 174.682 32.1702 174.572 33.1866 174.431C33.0991 174.154 32.95 173.792 32.6928 173.413C32.2865 172.817 31.8022 172.463 31.493 172.273C32.1497 171.145 32.8063 170.018 33.4616 168.891L29.6038 164.998V164.999Z" fill="white"/>
<path d="M31.5039 174.85C30.43 174.85 29.3616 174.71 28.3123 174.433C26.7282 174.013 25.2631 173.297 23.958 172.305C23.8814 172.247 23.8362 172.155 23.839 172.058C23.8417 171.961 23.891 171.87 23.9717 171.817L26.114 170.378C27.2207 168.486 29.2727 164.977 29.3397 164.857C29.3849 164.773 29.4683 164.717 29.5613 164.703C29.6557 164.692 29.7501 164.723 29.8171 164.79L33.6749 168.683C33.7707 168.78 33.7898 168.929 33.7214 169.045L31.8951 172.182C32.3069 172.475 32.6571 172.832 32.9403 173.248C33.1687 173.584 33.348 173.952 33.4724 174.344C33.4998 174.428 33.4875 174.52 33.4396 174.595C33.3917 174.671 33.3138 174.721 33.2262 174.732C32.6516 174.812 32.0757 174.851 31.5012 174.851L31.5039 174.85ZM24.6625 172.076C25.8171 172.891 27.0948 173.487 28.4656 173.85C29.8773 174.223 31.3247 174.334 32.7707 174.179C32.6804 173.97 32.5709 173.77 32.4423 173.583C32.1537 173.158 31.7802 172.803 31.3343 172.53C31.1947 172.445 31.1496 172.263 31.2317 172.122L33.0853 168.94L29.6667 165.49C28.9963 166.64 26.8759 170.264 26.5982 170.739C26.575 170.779 26.5435 170.811 26.5066 170.837L24.6625 172.077V172.076Z" fill="black"/>
<path d="M35.2152 156.558C33.3287 156.313 32.5257 158.301 30.2863 157.955C29.2603 157.796 28.8595 157.292 27.8622 157.476C27.2015 157.599 26.1686 158.045 25.8389 158.917C25.4203 160.026 26.6036 160.61 27.2876 163.149C27.7678 164.932 27.5435 165.978 28.2261 166.282C28.9169 166.59 29.5079 165.682 30.2877 165.961C31.2959 166.322 30.9662 168.08 31.9156 168.887C32.5681 169.441 34.2384 169.773 37.0894 168.45C36.9703 167.935 36.7966 166.876 36.5121 165.911C35.6215 162.894 34.6174 162.153 35.0538 161.42C35.7214 160.296 37.8924 161.125 38.3274 160.193C38.7802 159.226 37.1523 156.809 35.2152 156.557V156.558Z" fill="black"/>
<path d="M30.832 161.045L31.553 161.645C31.553 161.645 32.0687 164.625 32.4558 165.63C32.843 166.635 36.0468 165.671 36.0468 165.671L36.278 165.084L37.1618 164.798C37.1618 164.798 35.5051 162.199 35.1166 160.017C35.1166 160.017 32.8444 159.256 30.832 161.044V161.045Z" fill="white"/>
<path d="M31.133 161.04C31.3765 161.163 31.5666 161.259 31.7458 161.413L31.7499 161.416C31.8047 161.464 31.8389 161.527 31.8498 161.593C31.962 162.234 32.0865 162.879 32.2205 163.517C32.3573 164.152 32.4969 164.799 32.6911 165.392L32.7294 165.5C32.7431 165.539 32.7486 165.535 32.7554 165.557C32.7787 165.583 32.7978 165.613 32.8416 165.638C32.921 165.691 33.0482 165.732 33.185 165.754C33.4627 165.799 33.7773 165.788 34.0879 165.758C34.7117 165.694 35.3519 165.554 35.9607 165.381L35.7678 165.559L35.999 164.972L36.0085 164.946C36.04 164.866 36.1084 164.812 36.1864 164.795L37.0975 164.595L36.9853 164.907C36.5065 164.16 36.0838 163.393 35.7035 162.594C35.3314 161.792 35.0044 160.962 34.8211 160.069L35.0208 160.3C34.7089 160.21 34.3314 160.159 33.9784 160.156C33.62 160.151 33.2602 160.189 32.9127 160.275C32.5666 160.36 32.226 160.48 31.9141 160.656C31.7527 160.732 31.6063 160.838 31.4558 160.935C31.3614 160.994 31.3601 161.011 31.3108 161.019C31.2698 161.028 31.2082 161.024 31.1316 161.036L31.133 161.04ZM30.5311 161.05C30.6036 160.942 30.6925 160.818 30.7992 160.706C30.9004 160.598 31.04 160.485 31.1111 160.445C31.2821 160.334 31.4476 160.215 31.6323 160.126C31.9893 159.928 32.3779 159.79 32.7746 159.693C33.1713 159.594 33.5803 159.552 33.9866 159.557C34.3984 159.564 34.7883 159.608 35.2124 159.732C35.3177 159.762 35.3902 159.848 35.4093 159.948L35.4121 159.965C35.5502 160.786 35.8334 161.6 36.1686 162.389C36.5092 163.175 36.9005 163.951 37.3369 164.686C37.3971 164.787 37.3642 164.92 37.2616 164.98L37.2384 164.992L37.2233 164.999L36.3669 165.372L36.5544 165.196L36.3232 165.783V165.787C36.2876 165.875 36.2137 165.936 36.1303 165.961C35.475 166.147 34.8266 166.289 34.1426 166.36C33.8006 166.392 33.4531 166.408 33.081 166.349C32.8963 166.316 32.6993 166.267 32.5037 166.14C32.4052 166.08 32.3149 165.985 32.2424 165.879C32.2151 165.827 32.1754 165.751 32.1631 165.714L32.1193 165.59C31.9045 164.933 31.7691 164.292 31.6282 163.643C31.4928 162.995 31.3683 162.349 31.2547 161.697L31.3587 161.877C31.0564 161.632 30.7664 161.327 30.5283 161.051L30.5311 161.05Z" fill="black"/>
<path d="M31.2179 163.721C31.2179 163.721 30.3725 161.835 29.5968 162.401C28.8198 162.968 29.802 165.02 31.2179 163.721Z" fill="white"/>
<path d="M30.3136 164.444C30.1563 164.444 30.0249 164.412 29.9292 164.378C29.4723 164.215 29.1139 163.746 29.0359 163.211C28.9729 162.772 29.1152 162.379 29.4189 162.158C29.6296 162.004 29.8704 161.958 30.1139 162.022C30.8553 162.219 31.4285 163.457 31.4914 163.598C31.5448 163.717 31.5161 163.855 31.4203 163.943C30.9907 164.337 30.605 164.444 30.3122 164.444H30.3136ZM29.9018 162.595C29.858 162.595 29.8184 162.61 29.7732 162.643C29.6542 162.731 29.6009 162.91 29.6323 163.123C29.6775 163.439 29.8827 163.721 30.1316 163.81C30.3806 163.898 30.6364 163.788 30.8444 163.638C30.6145 163.2 30.2479 162.679 29.9606 162.602C29.9401 162.597 29.921 162.594 29.9032 162.594L29.9018 162.595Z" fill="black"/>
<path d="M19.6476 220.908C19.6093 220.908 19.571 220.901 19.5327 220.884C19.3795 220.821 19.3056 220.645 19.3699 220.492C21.6504 214.983 29.0006 213.954 29.3125 213.913C29.4781 213.894 29.6286 214.007 29.6504 214.172C29.6723 214.336 29.556 214.488 29.3919 214.509C29.3194 214.519 22.0731 215.537 19.9253 220.723C19.8774 220.839 19.7653 220.909 19.6476 220.909V220.908Z" fill="black"/>
<path d="M29.9034 224.261C29.7515 224.261 29.6216 224.146 29.6052 223.991C29.0415 218.685 32.0744 215.283 32.2044 215.14C32.3165 215.017 32.5067 215.009 32.6284 215.12C32.7516 215.232 32.7611 215.422 32.649 215.544C32.6189 215.577 29.6681 218.898 30.203 223.927C30.2208 224.092 30.1004 224.24 29.9362 224.258C29.9253 224.258 29.9143 224.259 29.9034 224.259V224.261Z" fill="black"/>
<path d="M190.024 149.319C188.788 146.168 189.181 142.067 190.4 137.482L193.411 140.279L197.55 136.943C195.753 142.341 194.705 147.156 196.923 149.426L190.022 149.318L190.024 149.319Z" fill="white"/>
<path d="M196.924 149.728H196.92L190.02 149.62C189.898 149.619 189.788 149.543 189.745 149.428C188.609 146.534 188.73 142.601 190.11 137.404C190.137 137.301 190.217 137.222 190.318 137.192C190.419 137.163 190.529 137.188 190.607 137.26L193.426 139.881L197.363 136.709C197.467 136.624 197.613 136.62 197.723 136.696C197.832 136.773 197.879 136.911 197.836 137.038C196.254 141.794 194.933 146.958 197.139 149.216C197.224 149.304 197.248 149.434 197.2 149.546C197.152 149.657 197.044 149.728 196.924 149.728ZM190.233 149.022L196.28 149.116C194.572 146.658 195.509 142.315 196.951 137.815L193.601 140.514C193.485 140.609 193.318 140.602 193.207 140.501L190.565 138.045C189.366 142.761 189.258 146.359 190.233 149.022Z" fill="black"/>
<path d="M199.135 214.608H185.241C182.842 214.608 180.891 212.675 180.871 210.276L180.342 151.077C180.321 148.647 182.284 146.666 184.713 146.666H200.336C202.784 146.666 204.756 148.677 204.707 151.126L203.505 210.325C203.458 212.704 201.515 214.607 199.135 214.607V214.608Z" fill="black"/>
<path d="M198.759 201.776H185.306C184.306 201.776 183.494 200.965 183.494 199.965C183.494 198.965 184.306 198.154 185.306 198.154H198.759C199.759 198.154 200.57 198.965 200.57 199.965C200.57 200.965 199.759 201.776 198.759 201.776Z" fill="white"/>
<path d="M197.872 203.674H186.537C184.952 203.674 183.667 204.959 183.667 206.544V207.891C183.667 209.476 184.952 210.761 186.537 210.761H197.872C199.457 210.761 200.742 209.476 200.742 207.891V206.544C200.742 204.959 199.457 203.674 197.872 203.674Z" fill="white"/>
<path d="M244.325 214.779H230.432C228.032 214.779 226.081 212.846 226.061 210.447L225.533 151.248C225.511 148.818 227.474 146.837 229.904 146.837H245.526C247.975 146.837 249.946 148.848 249.897 151.297L248.696 210.496C248.648 212.875 246.705 214.778 244.325 214.778V214.779Z" fill="black"/>
<path d="M242.4 150.963H232.567C230.567 150.963 228.946 152.585 228.946 154.584V157.535C228.946 159.535 230.567 161.156 232.567 161.156H242.4C244.4 161.156 246.021 159.535 246.021 157.535V154.584C246.021 152.585 244.4 150.963 242.4 150.963Z" fill="white"/>
<path d="M245.005 163.905H230.652C229.9 163.905 229.291 164.514 229.291 165.266V166.527C229.291 167.279 229.9 167.888 230.652 167.888H245.005C245.757 167.888 246.366 167.279 246.366 166.527V165.266C246.366 164.514 245.757 163.905 245.005 163.905Z" fill="white"/>
<path d="M244.894 172.022H230.418C229.7 172.022 229.118 171.441 229.118 170.723C229.118 170.004 229.7 169.423 230.418 169.423H244.894C245.612 169.423 246.194 170.004 246.194 170.723C246.194 171.441 245.612 172.022 244.894 172.022Z" fill="white"/>
<path d="M220.38 215.125H209.143C207.203 215.125 205.625 213.192 205.608 210.793L205.181 151.594C205.164 149.164 206.752 147.183 208.716 147.183H221.352C223.333 147.183 224.927 149.194 224.887 151.643L223.916 210.842C223.876 213.221 222.306 215.124 220.381 215.124L220.38 215.125Z" fill="black"/>
<path d="M220.596 151.308H209.051C208.131 151.308 207.385 152.054 207.385 152.974V154.878C207.385 155.799 208.131 156.545 209.051 156.545H220.596C221.516 156.545 222.262 155.799 222.262 154.878V152.974C222.262 152.054 221.516 151.308 220.596 151.308Z" fill="white"/>
<path d="M220.508 162.19H209.395C208.355 162.19 207.512 161.348 207.512 160.308C207.512 159.268 208.355 158.426 209.395 158.426H220.508C221.548 158.426 222.391 159.268 222.391 160.308C222.391 161.348 221.548 162.19 220.508 162.19Z" fill="white"/>
<path d="M132.212 240.686C125.499 240.686 118.926 239.752 112.665 237.866C111.505 237.515 110.345 237.13 109.218 236.719C109.062 236.662 108.981 236.489 109.038 236.333C109.096 236.177 109.268 236.098 109.424 236.154C110.54 236.562 111.689 236.944 112.839 237.291C129.903 242.431 149.314 240.436 167.498 231.675C167.649 231.603 167.828 231.666 167.901 231.816C167.973 231.965 167.91 232.146 167.76 232.217C156.107 237.833 143.948 240.688 132.214 240.688L132.212 240.686Z" fill="black"/>
<path d="M132.212 246.511C124.638 246.511 117.226 245.359 110.22 243.006C106.707 241.826 103.325 240.35 100.169 238.619C100.023 238.54 99.9711 238.356 100.05 238.21C100.13 238.065 100.313 238.01 100.458 238.091C103.583 239.805 106.932 241.268 110.412 242.436C133.411 250.161 160.868 244.83 183.858 228.177C183.994 228.079 184.181 228.11 184.278 228.244C184.375 228.378 184.345 228.567 184.211 228.664C168.058 240.365 149.705 246.511 132.212 246.511Z" fill="black"/>
<path d="M169.36 231.124C169.166 231.124 168.966 231.119 168.761 231.106C168.595 231.097 168.468 230.954 168.478 230.789C168.487 230.623 168.63 230.497 168.795 230.506C170.344 230.593 171.49 230.332 172.199 229.725C172.586 229.392 172.79 229.012 172.988 228.642C173.236 228.18 173.493 227.701 174.084 227.543C174.658 227.388 175.125 227.647 175.5 227.853C175.81 228.024 176.009 228.127 176.178 228.057C176.438 227.952 176.492 227.473 176.548 226.965C176.624 226.277 176.71 225.497 177.366 225.139C177.944 224.822 178.591 225.054 179.162 225.258C179.626 225.425 180.065 225.582 180.341 225.41C180.581 225.262 180.605 224.924 180.617 224.385C180.63 223.807 180.646 223.086 181.228 222.627C181.762 222.205 182.586 222.135 183.745 222.41C183.906 222.448 184.006 222.61 183.968 222.772C183.929 222.934 183.767 223.035 183.605 222.995C182.649 222.77 181.974 222.804 181.598 223.101C181.239 223.384 181.229 223.878 181.217 224.399C181.204 224.957 181.191 225.59 180.656 225.921C180.132 226.244 179.535 226.031 178.958 225.824C178.463 225.647 177.995 225.48 177.654 225.667C177.274 225.875 177.208 226.463 177.145 227.032C177.072 227.693 176.996 228.376 176.404 228.615C175.962 228.794 175.561 228.574 175.208 228.38C174.886 228.201 174.58 228.032 174.24 228.124C173.917 228.21 173.762 228.471 173.519 228.927C173.316 229.306 173.063 229.777 172.591 230.181C171.861 230.808 170.776 231.124 169.362 231.124H169.36Z" fill="black"/>
<path d="M125.06 12.9636C124.895 12.9636 124.759 12.8295 124.759 12.6626V10.3288C124.759 10.1619 124.893 10.0278 125.06 10.0278C125.227 10.0278 125.361 10.1619 125.361 10.3288V12.6626C125.361 12.8295 125.227 12.9636 125.06 12.9636Z" fill="black"/>
<path d="M125.06 18.3986C124.895 18.3986 124.759 18.2646 124.759 18.0977V15.7638C124.759 15.597 124.893 15.4629 125.06 15.4629C125.227 15.4629 125.361 15.597 125.361 15.7638V18.0977C125.361 18.2646 125.227 18.3986 125.06 18.3986Z" fill="black"/>
<path d="M123.509 14.5148H121.175C121.01 14.5148 120.874 14.3807 120.874 14.2138C120.874 14.0469 121.008 13.9128 121.175 13.9128H123.509C123.675 13.9128 123.81 14.0469 123.81 14.2138C123.81 14.3807 123.676 14.5148 123.509 14.5148Z" fill="black"/>
<path d="M128.946 14.5148H126.612C126.445 14.5148 126.311 14.3807 126.311 14.2138C126.311 14.0469 126.445 13.9128 126.612 13.9128H128.946C129.112 13.9128 129.247 14.0469 129.247 14.2138C129.247 14.3807 129.112 14.5148 128.946 14.5148Z" fill="black"/>
<path d="M15.7282 142.984C15.5627 142.984 15.4272 142.85 15.4272 142.683V140.349C15.4272 140.182 15.5613 140.048 15.7282 140.048C15.8951 140.048 16.0292 140.182 16.0292 140.349V142.683C16.0292 142.85 15.8951 142.984 15.7282 142.984Z" fill="black"/>
<path d="M15.7282 148.419C15.5627 148.419 15.4272 148.285 15.4272 148.118V145.784C15.4272 145.617 15.5613 145.483 15.7282 145.483C15.8951 145.483 16.0292 145.617 16.0292 145.784V148.118C16.0292 148.285 15.8951 148.419 15.7282 148.419Z" fill="black"/>
<path d="M14.177 144.535H11.8432C11.6777 144.535 11.5422 144.401 11.5422 144.234C11.5422 144.067 11.6763 143.933 11.8432 143.933H14.177C14.3425 143.933 14.478 144.067 14.478 144.234C14.478 144.401 14.3439 144.535 14.177 144.535Z" fill="black"/>
<path d="M19.6135 144.535H17.2797C17.1142 144.535 16.9788 144.401 16.9788 144.234C16.9788 144.067 17.1128 143.933 17.2797 143.933H19.6135C19.7791 143.933 19.9145 144.067 19.9145 144.234C19.9145 144.401 19.7804 144.535 19.6135 144.535Z" fill="black"/>
<path d="M216.391 129.536C216.224 129.536 216.09 129.402 216.09 129.235V126.902C216.09 126.735 216.224 126.601 216.391 126.601C216.558 126.601 216.692 126.735 216.692 126.902V129.235C216.692 129.402 216.558 129.536 216.391 129.536Z" fill="black"/>
<path d="M216.391 134.971C216.224 134.971 216.09 134.837 216.09 134.67V132.337C216.09 132.17 216.224 132.036 216.391 132.036C216.558 132.036 216.692 132.17 216.692 132.337V134.67C216.692 134.837 216.558 134.971 216.391 134.971Z" fill="black"/>
<path d="M214.839 131.086H212.507C212.34 131.086 212.206 130.952 212.206 130.785C212.206 130.618 212.34 130.484 212.507 130.484H214.839C215.006 130.484 215.14 130.618 215.14 130.785C215.14 130.952 215.006 131.086 214.839 131.086Z" fill="black"/>
<path d="M220.274 131.086H217.941C217.774 131.086 217.64 130.952 217.64 130.785C217.64 130.618 217.774 130.484 217.941 130.484H220.274C220.441 130.484 220.575 130.618 220.575 130.785C220.575 130.952 220.441 131.086 220.274 131.086Z" fill="black"/>
</svg>
