<svg width="24" height="17" viewBox="0 0 24 17" fill="none" xmlns="http://www.w3.org/2000/svg">
<path d="M9.99979 11.5751L15.9312 8.14648L9.99979 4.71791V11.5751ZM23.2112 2.62648C23.3598 3.16363 23.4626 3.88363 23.5312 4.79791C23.6112 5.7122 23.6455 6.50077 23.6455 7.18648L23.7141 8.14648C23.7141 10.6493 23.5312 12.4893 23.2112 13.6665C22.9255 14.6951 22.2626 15.3579 21.2341 15.6436C20.6969 15.7922 19.7141 15.8951 18.2055 15.9636C16.7198 16.0436 15.3598 16.0779 14.1026 16.0779L12.2855 16.1465C7.49693 16.1465 4.51408 15.9636 3.33693 15.6436C2.30836 15.3579 1.64551 14.6951 1.35979 13.6665C1.21122 13.1293 1.10836 12.4093 1.03979 11.4951C0.959791 10.5808 0.925505 9.7922 0.925505 9.10649L0.856934 8.14648C0.856934 5.64363 1.03979 3.80363 1.35979 2.62648C1.64551 1.59791 2.30836 0.935056 3.33693 0.649342C3.87408 0.50077 4.85693 0.397913 6.36551 0.329341C7.85122 0.249341 9.21122 0.215056 10.4684 0.215056L12.2855 0.146484C17.0741 0.146484 20.0569 0.329342 21.2341 0.649342C22.2626 0.935056 22.9255 1.59791 23.2112 2.62648Z" fill="#344054"/>
</svg>
